<svg xmlns="http://www.w3.org/2000/svg" viewBox="0 0 2996.21 2464.8"><defs><style>.cls-1{fill:#5f5f5f;}.cls-2{fill:#414141;}.cls-3{fill:#fbbe50;}.cls-4{fill:#fcd38c;}.cls-5{fill:#666059;}.cls-6{fill:#45423d;}.cls-7{fill:#a9a9a9;}.cls-8{fill:#b9e1e1;}.cls-9{fill:#dcf9fb;}.cls-10{fill:#a19d98;}.cls-11{fill:#fcbe4f;}.cls-12{fill:#c6c6c6;}.cls-13{fill:#45423e;}.cls-14{fill:#fefefe;}</style></defs><g id="Round_small" data-name="Round small"><g id="Слой_24" data-name="Слой 24"><path class="cls-1" d="M3597.32,2167.06c9.84,7.41,16.31,13.81,26,21.41,5.87,4.6,5.91,4.6,11.67-.42,4-3.5,7.89-7.17,12-10.6,16.56-14,38.84-13.32,54.26,1.92a228.65,228.65,0,0,1,17.33,19.33c13.33,16.6,12,38.3-3.05,53.41-4.23,4.24-8.71,8.25-13.28,12.12-3.8,3.21-3.93,6.34-1.23,10.37q8.34,12.45,16.18,25.22c6.63,10.78,12.53,22,18.13,33.33,5.32,10.79,5.32,10.72,16.38,7.24a146.61,146.61,0,0,1,16.32-4.59c18-3.46,35.06,5.24,42.74,22a151.49,151.49,0,0,1,10.38,32.27c3.31,15.84-6.37,33.41-21.84,41.21-6,3-12.58,4.31-18.84,6.55-7.58,2.72-8.24,3.26-7,10.66,4,23.33,6.82,46.77,7,70.47.05,5.17,2,8.12,7.42,8.57,4.64.38,9.24,1.24,13.87,1.72,18.42,1.91,30.95,11.08,36.41,29.16.47,1.57,1.68,34.17.07,43-3.54,19.51-18.74,33.41-38.73,34.2a59.25,59.25,0,0,1-12.89-.82c-7.88-1.43-13.1,1.88-15,9.48-4.69,18.7-11,36.86-17.77,54.88-2,5.21-.85,9.78,3.49,13.44,2.27,1.92,11,11.32,12.41,14.45,3.24,7.18-10.77-4-14-5.86-7.42-4.26-98.2-54.37-132-72.35,2.42-17.86,11.15-40.71,14.67-58.33,17.92-89.74-.62-171.6-52.49-246.34-43.15-62.16-102.23-101.92-174.78-121.64-63.86-17.37-127.15-13.84-189.25,8.83-51.37,18.76-107.62,49.51-138.48,97.93-3.54,3.94-5.21,3.49-10.8,1-19.31-9.63-95-58.9-125.77-76.8-13.64-13.69-22.66-36.08-12.42-52.61,7.31-11.79,17.13-21.35,27.67-29.94,14.81-12.06,36.28-11.72,52-.38,19.51,14.06,19.49,14,38.45-1.11,9.89-7.9,20.44-14.9,30.83-22.11,9.67-6.71,10.39-9.41,5.85-19.93-12.36-28.68-4.43-50.48,23.44-64.66a142,142,0,0,1,23-9.74c21.27-6.48,40.88,1.11,52.44,20.06,12.06,19.76,12,19.73,34.7,14.51,12-2.77,24.17-4.73,36.28-6.94s13.95-4.12,14.64-16.1a85.16,85.16,0,0,1,2.71-17.73c3.2-11.58,9-21.74,21-26.3,22.89-8.72,46-10.39,68.46,1.07,13.25,6.76,19.43,18.38,19.6,33.44.25,22.57.41,22.76,22.46,26.33,14.49,2.35,28.69,5.85,42.94,9.21,10.81,2.55,13.6,1.55,17.82-8.87,10.66-26.36,37.17-39.81,68.44-24.46,8.87,4.36,18.17,7.54,25.92,14.56,15.63,14.16,16.73,35.07,10.3,50.32-.91,2.15-2,4.2-2.89,6.36-4.28,10.59-4.74,16.79-4.74,16.79S3587.63,2159.75,3597.32,2167.06Z" transform="translate(-842.85 -567.2)"/></g><g id="Слой_23" data-name="Слой 23"><path class="cls-2" d="M3618.71,2640.15c9.09,8.7,130.54,75.11,141,81.38,3.12.4,5.52,2.46,8.33,3.6l-.15-.1a86.07,86.07,0,0,1,6.2,6.18l-.11-.14c9.62,13.46,9.56,27.81,4,42.67a141.52,141.52,0,0,1-12.69,22.57c-11.43,17.21-32.53,22.61-51.08,13.27-5.64-2.84-11.11-6-16.47-9.4-3.89-2.43-6.57-1.78-9.3,1.83a431.49,431.49,0,0,1-49.38,54.82c-3.63,3.38-4.06,6.34-1,10.26,3.51,4.43,6.78,9.06,9.93,13.75,12.82,19,9.37,40.92-8.76,55-6.31,4.89-12.75,9.64-19.44,14-18,11.68-39.1,8.39-52.81-8.14a174.65,174.65,0,0,1-10.64-14.47c-2.92-4.38-5.85-5.38-10.74-2.59-20.58,11.71-42.31,20.95-64.5,29.13-8.07,3-8,3.11-6.42,11.54.56,2.94,1,5.91,1.57,8.84,5.16,24.72-.73,38.11-22.36,50.79-5.59,3.1-12,2.62-18,4.2h0c-10.44,2.5-21,2.3-31.64,1.77h-.05c-3.48-1.72-6.9-3.57-10.31-5.44-10.23-8.53-14.8-19.76-17.45-32.64-3.6-17.44-1.41-14.61-17.48-13.86a624.76,624.76,0,0,1-63.9-.27c-8.26-.46-8.28-.49-10.18,7.16-.88,3.56-1.88,7.1-2.42,10.72-3.45,22.84-21.86,40-51.2,34.41-7.18-1.38-14.29-3.23-21.31-5.3-20.06-5.89-31.66-25.23-27.64-45.78,1-5.22,2.22-10.41,3.24-15.64,1.38-7.11,1.29-7.48-5.85-10.16-13.72-5.15-27.38-10.42-40.58-16.78-7.8-3.76-15.51-7.69-23.2-11.66-8-4.11-7.95-4.17-13.54,3.32-3,4-5.8,8.14-8.91,12-13.68,17.14-35.26,20.74-53.49,8.75-6.95-4.57-13.72-9.46-20.24-14.62-16.64-13.2-20.22-34.87-8.79-52.77,3.4-5.32,7.18-10.41,11-15.44,2.65-3.49,2.82-6.28-.59-9.49a434.89,434.89,0,0,1-50-55.63c-2.85-3.8-5.66-3.78-9.36-1.46-4.51,2.83-9.18,5.42-13.86,8-21,11.43-42.88,5.79-55.21-14.76-4.41-7.36-9.81-14.11-12.84-22.37-7.52-20.45-1.18-39.4,17.6-50.8,4-2.42,8.08-4.66,12-7.09,6.93-4.24,7.11-4.36,4.05-11.77a434.73,434.73,0,0,1-16.36-47.13c-2-7-3.9-14.12-5.56-21.24-1.2-5.2-3.92-7.21-9.27-6.09a129.08,129.08,0,0,1-12.87,1.7c-25.4,2.68-44.23-12.53-46.88-37.86-.73-7-1.51-13.91-2-20.88a39.44,39.44,0,0,1,34.67-41.82c5.61-.69,11.26-1.13,16.84-2,7.28-1.2,7.52-1.35,7.63-8.95a442.7,442.7,0,0,1,3.8-49.74c.92-7.25,3.35-14.3,2.82-21.73-.55-5.08-2.71-8.23-6.79-9.82-2.8-.81-3.46-1.16-7.63-2.2-8.22-2-15.68-5.56-21.63-11.58" transform="translate(-842.85 -567.2)"/></g><g id="Слой_21" data-name="Слой 21"><path class="cls-2" d="M2886.94,2450.33c.94-5.09-1.25-12.75-6.48-14.21-4.49-1.26-11.67-3.95-16.13-5.29-17.73-5.35-28.85-19.34-30.8-38.13-2.25-8,4.8-33.88,8-42.27,7.16-18.49,24.71-29.27,44.49-26.28a59.39,59.39,0,0,1,12.5,3.24c7.47,2.9,13.22.62,16.52-6.48,8.14-17.48,20.32-34.8,28.15-52.39,7.58-17,2.21-15.59,4.86-15,6.48,5.58,101.05,51.56,130.86,75.6-19.42,21-62.56,116.1-64.36,147.91" transform="translate(-842.85 -567.2)"/></g><g id="Слой_18" data-name="Слой 18"><path class="cls-2" d="M3080,2327.62c60.37-65.25,103.57-93.26,163.16-110.19a314.38,314.38,0,0,1,111.7-11.14c63.27,5.09,120.41,27.18,170.72,66.23,44.37,34.45,76.68,78.09,98.72,129.55,13.49,31.48,20.61,64.38,23.94,98.49,4.77,48.83-5.69,103.39-22.45,148.91-3.39,3-65.13-39.26-71.74-47.49-1.51-4.44.36-8.51,1.49-12.63,6.07-22.24,10-44.83,9.3-67.94-3.32-111.07-79-202.68-183.66-225.06-77.24-16.52-159.14.15-234.11,76.34-1.89,1.06-2.48-1.23-15.21-10-21.37-13-31.89-21.15-46.49-30C3077,2327.81,3077.42,2330.44,3080,2327.62Z" transform="translate(-842.85 -567.2)"/></g><g id="Слой_16" data-name="Слой 16"><path class="cls-1" d="M3627.05,2646.26a94.18,94.18,0,0,0-5.44,9.94c-18.41,44.37-47.9,80.79-83.81,111.64-47,40.39-101.52,65.58-163.41,73.67-15.16,2-30.36,4.17-45.69,3.69-44.31-1.41-87.14-9.57-128.06-27.39a314.08,314.08,0,0,1-72.23-44.1c-34.21-27.67-62-60.92-82.41-100.32-18.75-36.3-29.54-74.69-34.12-115.15-4-34.82-.86-69,6.43-103.09,8.34-38.89,23.9-74.73,45.62-107.94,3.09-4.72,12.08-15.44,15-18.13,15.78,8.2,58.86,36.64,65.77,42.82,4.35,5.69-3.69,13.18-6.18,16.83-13.24,19.35-24.15,39.78-31.16,62.23-24.44,78.21-13.24,151,36,216.44,41.08,54.6,96.95,84.53,165.26,91.39,97.32,9.77,197.2-45.48,238.3-143,2.27-5.38,1.7-13.88,10.94-14.3C3563.8,2608.31,3620.07,2642.43,3627.05,2646.26Z" transform="translate(-842.85 -567.2)"/></g><g id="Слой_14" data-name="Слой 14"><path class="cls-3" d="M3557.86,2601.49c-7.75,19.87-16.41,39.24-28.56,56.92-38.48,56-91,90.75-157.87,102.72-67.73,12.12-129.73-3-184.85-43.74-48.49-35.85-79.42-84.08-91.37-143.14-14.11-69.81.71-134.05,42.05-192.11,1.54-2.17,3-4.36,4.55-6.54,1.56-1.86,22.11-24.54,32.11-32.92,44.31-37.12,95-56.15,152.95-57.25,108.56-2.06,206.49,71.43,234.73,178.21,11.3,42.74,11,85.58-1.29,128.2C3559.39,2595,3558.67,2598.27,3557.86,2601.49Z" transform="translate(-842.85 -567.2)"/></g><g id="Слой_13" data-name="Слой 13"><path class="cls-2" d="M3394.17,2525.23c1.83,36.55-31.72,64.84-63.55,64.46-36.32-.43-66.13-28.92-65.8-65.07.31-35.33,27.93-64.55,66.25-64.65C3363,2459.88,3395.94,2488.45,3394.17,2525.23Z" transform="translate(-842.85 -567.2)"/></g><g id="Слой_11" data-name="Слой 11"><path class="cls-4" d="M3397.85,2403.77c7.38-.75,13.53,1.86,18.64,7.34,4.52,4.85,9.38,9.41,13.8,14.36,10.26,11.47,4,32.46-9.28,36.59-5.79,1.8-11.11,1.92-16.21-1.43-10.93-7.18-20.25-16.26-28.52-26.22-8.79-10.58-4.32-24.13,8.74-28.72A32.13,32.13,0,0,1,3397.85,2403.77Z" transform="translate(-842.85 -567.2)"/></g></g><g id="Round_big" data-name="Round big"><g id="Слой_30" data-name="Слой 30"><path class="cls-2" d="M1655.1,3027.19c-18-9.47-28.68-24.19-31.89-44.4-1.1-6.89-3-13.63-4.41-20.49-1-4.8-3.42-6.4-8.43-6a651.26,651.26,0,0,1-95.76,1c-4.32-.26-8.65-.5-12.94-1-4.09-.46-6.22,1.23-7.06,5.17-1.52,7.16-3.56,14.22-4.74,21.44-3.65,22.27-15.85,37.58-36.62,46.2-13.29,3.61-26.57,2.35-39.85-.11h0c-12.3-2.29-24.93-3.36-36.08-9.82-4.28-3.15-8.88-5.87-12.59-9.78-13.25-14-18.73-30.34-15.31-49.41,1.29-7.2,3-14.31,4.45-21.49,2.45-12.26,2.43-12.33-9-16.37a628.07,628.07,0,0,1-76-32.8c-5.92-3-11.92-6-17.58-9.43-4.32-2.66-7.19-2.1-10,2-4.31,6.31-9.09,12.3-13.37,18.65-18.23,27.07-54,35-82.12,13.31-7.37-5.69-15.15-10.85-22.54-16.5-26.09-19.94-30.85-51.71-11.84-78.64q7.47-10.61,15.27-21c2.47-3.26,2.43-5.93-.7-8.61-1.52-1.29-2.88-2.76-4.33-4.14a640.6,640.6,0,0,1-67.29-74.89c-5.8-7.58-5.85-7.55-14.37-2.65-5.77,3.32-11.51,6.67-17.28,10-30.34,17.34-60.48,9.72-79.23-20-2.57-3.8-3.54-5.18-6.23-9.75-3.31-6.42-7.31-12.44-10.31-19.08-12.79-28.33-3.88-57.32,22.89-73.32,6.28-3.76,12.66-7.36,19-11.09,8.44-5,8.53-5.06,4.9-13.75a626.72,626.72,0,0,1-28.8-86.06c-1.24-4.83-2.6-9.64-3.6-14.52s-3.84-6.47-8.61-5.86c-8.91,1.13-17.83,2.43-26.79,2.94-23,1.33-40.75-7.82-52.76-27.55-5-8.12-6.88-17.22-7.72-26.62-.62-7-2-13.29-2.47-20.8-1.94-28.37,14.3-64,50-66.56,7.63-.54,15.22-1.69,22.83-2.53,8.8-1,9.11-1.07,9.31-9.44a635.64,635.64,0,0,1,6-73.59c1.4-9.88,3-19.74,4.74-29.56,1.67-9.38,1.68-9.58-7.67-12.64-7-2.28-14-4.43-20.89-6.77-29.94-10.1-45.4-38.61-37-68.95,3.1-11.21,6.91-22.25,11-33.15,10.49-28.09,39.21-42.26,68-33.76,8.62,2.54,17.26,5.08,25.64,8.28,5.36,2,7.74.33,10-4.4,5.31-11.11,11.08-22,16.67-32.95,2-3.78,3.84-6.8,5.65-10.27,6-11,12.37-21.85,20-31.87,6.87-6,1162.81,673.77,1159.55,681.61h0c-2.22,4-4,7.87-6.13,11.73-4.08,7.24-7.93,14.61-12.27,21.69-16.49,26.83-46.51,35-74.53,20.37-7.36-3.85-14.43-8.27-21.66-12.39-7.52-4.28-7.61-4.32-12.72,2.28q-17.11,22.11-35.8,42.9c-11.15,12.38-22.94,24.11-34.94,35.64-5.52,5.3-5.51,5.46-1.26,11.49,4.79,6.8,9.85,13.4,14.6,20.23,18.42,26.5,13.48,58.38-12.11,77.88q-12.3,9.39-25,18.22c-26.59,18.43-58.18,13.39-77.84-12.39-5-6.61-9.75-13.48-14.75-20.13-4.52-6-4.69-6.09-11.31-2.49a647.36,647.36,0,0,1-84.33,38.59c-4.06,1.5-8.15,2.91-12.19,4.45-7.31,2.79-7.45,2.89-6,11,1.29,7.2,2.37,14.5,4.44,21.49,7.72,26.14-8.4,57.71-44.19,68.82C1703.36,3029.61,1669.85,3033.1,1655.1,3027.19Z" transform="translate(-842.85 -567.2)"/></g><g id="Слой_29" data-name="Слой 29"><path class="cls-5" d="M2184.63,2667.37c-24.28-14.09-240.36-147.22-255.49-155.57-8.21-4.15-5.54-4.65-.56-14a415.63,415.63,0,0,0,35.28-119.25c4.12-30.08,3.9-60.29,1.42-90.58a402.21,402.21,0,0,0-16-84.16c-10.59-34.92-25.91-67.6-44.83-98.83-21.11-34.83-48-64.57-77.71-92-22.84-21.09-48.66-38.21-75.92-53.09a401.8,401.8,0,0,0-131.7-44.87c-29-4.5-58.27-6.72-87.54-4.8-62.29,4.1-121.26,20.48-176.11,50.63A431.16,431.16,0,0,0,1241,2054.53c-8.28,9.59-20.07,28.68-28.18,38.36-4.66,5.56-82.2-44.74-187.68-107.14,3.89-6.85,7.64-12.45,11.8-18.43,2.59-3.74,2.38-6.57-1-9.53-6.47-5.74-12.92-11.51-19.27-17.39-20.2-18.74-24.92-43.59-12.27-68,2.89-5.59,8.11-18.73,16.07-28.28,3.85-4.62,8.09-8.83,12.25-13.14,20.36-21.06,59.94-21.41,81.19-2,25.72,23.46,22.34,18,44,1.39,18.51-14.17,37.24-28,56.82-40.7,10.54-6.83,11.22-10.13,5.89-21.57-5.94-12.76-11.29-25.59-10.14-40.17,1.42-18,8.73-33.4,23.44-43.4,21-14.26,43.3-26,70.09-25.27,22.13.62,37.63,11.62,48.87,29.64,4,6.48,7.11,13.56,10.35,20.5,3,6.5,7.86,8.62,14.67,6.83,28.69-7.51,57.75-13.2,87-17.93,10.63-1.72,12.77-4.84,13.18-15.4a103.12,103.12,0,0,0,0-11c-2.27-33.56,23.73-61.73,54.46-63.68,16.94-1.08,33.91-2.36,50.73,1,24.73,5,49.07,27.65,46.62,58.75-.34,4.3-.09,8.65,0,13,.22,12.78,2.62,15.91,15.25,17.72a665.73,665.73,0,0,1,81.15,16.56c14.12,3.86,16.31,2.46,22.19-10.74,4.61-10.34,9.23-20.7,17.37-29,16.46-16.72,36.95-19.42,58.29-14.7,16.9,3.74,32.78,11.41,47.33,20.89,23.71,15.46,32.35,43.23,22.7,70.24-2,5.63-4.42,11.13-6.94,16.57-5,10.67-4.15,14.57,5.79,20.86a639.32,639.32,0,0,1,60.22,42.77c21.07,17,17.31,19.58,40.56-1.46,20.36-18.43,51.8-20.63,70.37-8,18.82,12.77,35.19,28.87,46.06,49,9.67,17.94,8.37,50.92-10.89,67.49-5.78,5-10.9,10.74-16.27,16.21-4.65,4.75-5.28,9.94-1.6,15.36a652.65,652.65,0,0,1,46.11,79.39c3.31,6.75,9,8.47,16,6.26a194.19,194.19,0,0,1,25.17-6.3c22.78-4,47.87,6,59.57,26,11.36,19.37,18.34,40.63,19.05,63.37.77,25-11.68,42.3-33,53.81a111.22,111.22,0,0,1-22.26,8.82c-8.15,2.32-11.64,7.28-10,15.6,5.75,29.81,7.66,60,9.55,90.23.5,8,4.37,12.42,12.41,12.65,6,.18,11.91,1.3,17.84,2.08,30.57,4,51.48,27.78,51.59,58.71a160.49,160.49,0,0,1-.85,17.93c-1,9.4-4.36,22.87-7,31.66-7.66,25.61-33.5,39.63-60.15,37.94-8.63-.54-17.21-1.93-25.83-2.78-7.92-.78-8.32-.68-10.29,7.18-5.92,23.58-12.37,47-20.84,69.82-3.94,10.61-8,21.18-12.46,31.58-2,4.61-1.16,7.44,3.12,9.85,8.41,4.75,16.89,9.41,25,14.66,21.64,14,30.58,39.47,22.7,63.78A30.93,30.93,0,0,1,2184.63,2667.37Z" transform="translate(-842.85 -567.2)"/></g><g id="Слой_28" data-name="Слой 28"><path class="cls-3" d="M1303.26,2141.79c10-12,19.49-24.46,30.44-35.71,51.65-53.07,114.06-84.23,187.75-92.52,65.17-7.34,127,4,184.11,36.13,87.92,49.47,140.36,124.88,156.9,224.26,9.61,57.74,2.33,114.1-20.6,168.21-1.29,3.06-2.21,6.27-3.3,9.41,2.49,5.21.07,9.68-2.11,14.2-11.12,23-25.75,43.63-42.68,62.51-48.69,54.3-108.28,90.29-180.6,102.74-96,16.52-182.61-5.69-257.91-67.76-61.07-50.35-97.87-115.54-109.72-193.7-9.22-60.84-1.55-120.11,23.66-176.73,6.11-13.73,13.53-26.7,21-39.71C1293.25,2147.7,1297.23,2143.65,1303.26,2141.79Z" transform="translate(-842.85 -567.2)"/><path class="cls-6" d="M1359,2321.06c-1.65-112.12,94.26-197.56,196-198.08,99.78-.51,199.36,78.94,199.53,199.08.17,111.52-90.35,196.28-196,197.37C1443.43,2520.62,1356.89,2425.65,1359,2321.06Z" transform="translate(-842.85 -567.2)"/><path class="cls-4" d="M1751,2138.15c1.65,16.54-19.07,29.51-33.47,19.95-9.77-6.48-19-13.08-26.74-21.72-11.15-12.42-8.61-25.3,6.16-33.42,10.94-6,21.14-6.43,31.24,2.18,7.11,6.05,14,12.16,19.1,20.05A21.63,21.63,0,0,1,1751,2138.15Z" transform="translate(-842.85 -567.2)"/><path class="cls-3" d="M1398.79,2322.41c-2.45-81,63.19-160,158.46-159.65,89,.36,158.47,71.73,157.58,161-.87,88-73.84,157-160.56,155.93C1464.35,2478.58,1396.36,2402.91,1398.79,2322.41Z" transform="translate(-842.85 -567.2)"/><path class="cls-2" d="M1556.29,2385.89c-35.45,0-65-29.48-64.74-65,.23-35,27.35-64.29,65.15-64.68,34.48-.35,64.59,28.15,64.4,65.23C1620.92,2357.57,1592.52,2385.93,1556.29,2385.89Z" transform="translate(-842.85 -567.2)"/><path class="cls-4" d="M1631.12,2213.87c3.72,0,7.36.41,10.52,2.5,13.75,9.12,21.11,21.8,20.62,38.47-.26,8.57-12.55,17.58-20.93,15.68-14.17-3.22-25.72-10.24-33.61-22.86-6.82-10.92-5.47-20.06,4.75-27.78C1618,2215.74,1624.32,2214.05,1631.12,2213.87Z" transform="translate(-842.85 -567.2)"/></g><g id="Слой_27" data-name="Слой 27"><path class="cls-5" d="M1303.26,2141.79c-10.32,16.33-20.31,32.8-28.29,50.47a316.53,316.53,0,0,0-25.81,94,307.29,307.29,0,0,0,66.83,230.6c39.6,48.61,89.5,82.1,149.28,100.78,34.65,10.83,70.33,15.8,106.47,13.41,94.54-6.25,171.64-46.5,230.56-121a283.26,283.26,0,0,0,31.83-50.65c1.32-2.67,2.95-5.19,4.43-7.78,8.22,3.85,72.17,45.15,83.07,52.78,4.33,3,2.37,7,.31,10.66-11.23,20.06-23.1,39.72-37.39,57.79-31.23,39.52-67.66,73.21-110.75,99.62a425.36,425.36,0,0,1-135.8,53.86c-37.16,7.84-74.8,9-112.33,6.66-49.92-3.07-97.76-15.71-143.3-36.84a402.16,402.16,0,0,1-87-54.27c-52.25-43.06-92.78-95.07-119-157.89a427.3,427.3,0,0,1-31.07-126.47c-6-64.87,4.28-127.31,27.12-188,8.37-22.22,19.41-43.07,31.21-63.57,1.16-2,2.46-4,3.8-5.87,7.17-10.19,8.53-10.51,19.19-4.43,17.9,10.21,52.33,31.56,69.86,42.26A59.82,59.82,0,0,1,1303.26,2141.79Z" transform="translate(-842.85 -567.2)"/></g><g id="Слой_26" data-name="Слой 26"><path class="cls-6" d="M1859.07,2387.08A307.28,307.28,0,0,0,1816,2150.89c-37.88-48.85-85.47-90-138.28-115.41a288,288,0,0,0-104.16-23.33c-94.69-3.37-175.87,28-242,96.18a395.5,395.5,0,0,0-29.25,34.46c-7.78-4.66-79.41-41.2-89.48-49.9-4-3.46,27.23-38.85,43.28-55.38,35.08-36.14,74.73-66,120.29-87.87,42.64-22,91.38-34.57,140.56-39.8a423.5,423.5,0,0,1,113.23,3c49.35,8.13,94.85,27.33,138,53a402.24,402.24,0,0,1,81.06,62.82c47.61,48.14,82.65,104,102.39,169.15a427.43,427.43,0,0,1,18.07,129c-.65,65.14-17,125-40.75,173.2-4.71,9.56-.44,9.32-14.09,0-16.77-12-58.61-37.06-76.27-48.39C1837.5,2450.78,1851.92,2419.17,1859.07,2387.08Z" transform="translate(-842.85 -567.2)"/></g></g><g id="Roof"><g id="Слой_38" data-name="Слой 38"><path class="cls-3" d="M1419.44,689.19c-7.28-23.16-12.87-46.78-19-70.25-1.62-6.18.2-7.84,6.79-9.44,364.65-88.68,808.09-20.92,1035.84,48.07,36.09,12.95,71.22,28,103.72,48.59,14.1,8.94,27.48,18.79,38,32a87.38,87.38,0,0,1,7.89,11.5c5.51,9.81,6.74,19.7,1.56,30.43q-18,37.34-39.15,73c-9.11,15.48-18.48,30.81-27.72,46.22a180.06,180.06,0,0,1-14.61,21.41c-4.71,4.39-10,2.28-15.08,1.14-22.3-5-44.83-8.91-67-14.37-1.63-.4-3.29.28-4.94.34-23.22-7.52-47.74-8.38-71.32-14-3.09-.74-5.78,1.13-8.74.63-38.73-7.53-78-11.33-117-16.69-13.72-1.89-27.87-.89-41.17-5.79-5.08-5.37-6-12.39-7.71-19.16-9.83-39.94-22.6-78.7-46-113.12-3.56-5.23-7.43-10.22-11.49-15.08-12.17-14.61-26.7-23.3-46.43-25.89-51.46-6.77-103-12.62-154.69-17-86-7.33-172.1-8.58-258.26-7.36-42.52.59-85,3.42-127.44,7.08-35.14,3-70.2,6.56-105.16,11.19C1426,693.06,1422.26,692.8,1419.44,689.19Z" transform="translate(-842.85 -567.2)"/></g><g id="Слой_37" data-name="Слой 37"><path class="cls-6" d="M2628.6,1386.48c-24.22-.17-48.44-.67-72.65-.33-7.72.1-9.43-4.39-11.11-9.94-6.56-2-6.38-8-7.39-13-7.83-38.49-15.2-77.09-23.72-115.44-20.95-94.29-44.49-187.91-73.13-280.2-4.93-15.9-10.24-31.68-15.06-47.62-1.47-4.85-4.27-10.14.47-15,1.75-2,4.09-2,6.39-1.59,26.95,5,53.88,10,80.35,17.22,17.38,48.92,32,98.69,45.49,148.8,18.33,68.1,34.06,136.83,48.73,205.8C2612.43,1300.94,2628.54,1385.84,2628.6,1386.48Z" transform="translate(-842.85 -567.2)"/></g><g id="Слой_36" data-name="Слой 36"><path class="cls-6" d="M1419.44,689.19c31.85-5.44,64-8.6,96.13-11.48,23.17-2.08,46.46-3.41,69.69-5,64.54-4.48,129.14-4.39,193.72-3.3,46.91.79,93.78,3.28,140.61,7,31.19,2.48,62.33,5.33,93.4,8.88,26.1,3,52,7.33,78.11,10.73,8.44,1.09,14.8,5.23,20.83,10.74,20.79,19,35.47,42.24,47,67.6,13.72,30.14,23.14,61.66,29.39,94.15-1.45,4.56-5.17,4.62-8.93,4.39-16.59-1-33.21-2.17-49.74-3.71-14.58-1.35-29.22-2-43.78-2.82-23.21-1.28-46.45-3.8-69.78-2.51-9,.51-17.87-1.76-26.85-1.9-12.16-.18-15.94,2.45-20.16,13.72-24.86,66.47-45.33,134.31-63.32,202.93-27.8,106-49,213.39-66.83,321.46-4.78,28.88-8.67,57.9-12.93,86.87-.87,5.89-1.51,11.93-5.26,17-2.93,2.94-6.66,3.14-10.24,2.21-16.72-4.32-33.32-9.14-50-13.58a8.19,8.19,0,0,1-5.82-5c-2.69-7.23-1-14.58.08-21.7,17-116.9,37.81-233.07,65.18-348,19.36-81.28,41.42-161.74,69.68-240.43,4.28-11.9,1.88-15.36-10.62-15.5-49.54-.55-99,1.17-148.52,3.54-24.88,1.2-49.75,2.22-74.57,4.3-1.66,0-3.33.06-5,.07-25.91.17-26.51.74-34.68,24.85-47.55,140.18-80.79,283.88-106.47,429.49-7.68,43.55-14.41,87.24-21.25,130.92-.62,4-1.06,7.94-3.58,11.29-2.4,3.87-6.36,4.39-10.34,5-20.66,3-41.44,5.09-62,8.74-4.63.83-10.32,1.82-11.25-5.64q5.17-34.53,10.36-69.06,13.44-89.82,30.44-179C1457,1148.54,1474,1071.25,1495,994.89c10-36.22,20.33-72.36,32.9-107.8,4.4-12.42,4.38-12.42-5.13-21-22.94-20.77-45.8-41.62-68.86-62.26a27,27,0,0,1-8.49-14.16c-7.81-30.27-16-60.44-24.06-90.65a21.63,21.63,0,0,1-1.9-9.84Z" transform="translate(-842.85 -567.2)"/></g><g id="Слой_35" data-name="Слой 35"><path class="cls-7" d="M1419.47,689.15c1.22,3.17,2.61,6.3,1.9,9.84C1419.37,696,1416.83,693.06,1419.47,689.15Z" transform="translate(-842.85 -567.2)"/></g><g id="Слой_34" data-name="Слой 34"><path class="cls-8" d="M1948.91,1558.35c-38.32-20.58-78.49-36.8-119.58-50.85-3.74-1.28-7.67-2.23-10.52-5.3,4.23-29.31,8.14-58.67,12.74-87.92q16-101.58,37.37-202.15c21.7-101.62,47.66-202.08,81.79-300.3,5.46-15.72,11.12-31.37,16.8-47,2.87-7.91,3-7.94,11.47-7.7,47.26,1.34,94.51,3.15,141.7,6.11,22.57,1.41,45.1,3.49,67.65,5.27,37.26,3.58,74.39,8.17,111.45,13.42,15.75,2.24,31.5,4.3,47.14,7.21,9,3.59,14.57,10.47,20,18.37,20.64,30.07,37.09,62.54,50.77,96,14.32,35,27.42,70.7,36.26,107.69,3.48,14.56,8.42,28.75,12,43.26,11.7,47.75,24.67,95.19,34.13,143.49,4.85,24.77,10,49.52,16.39,74,1.7,6.51,4.52,13.88-3.87,18.57-.9,1-1.64,2.25-2.74,2.84-14.84,7.85-24.87,20.63-34.61,33.66-16.28,21.75-32.4,43.62-48.58,65.45-4.56,2-8.32.34-12.05-2.33q-29.23-20.94-59-41.15c-10.09-6.87-10.87-10.31-4.1-20.45,9.61-14.4,19.94-28.3,29.85-42.49,3.81-5.46,7.89-10.77,11-16.67,5.61-10.7,3.55-21.37-5.07-27.76s-19.36-5.09-27.63,4.18c-10.43,11.7-18.65,25.11-27.56,38q-42.42,61.13-85,122.17c-2.67,3.82-5.39,7.64-7.2,12-4.15,9.9-1.26,20.1,7.15,25.59,8.7,5.68,18.71,4.56,26.08-3.88,10.31-11.8,18.47-25.24,27.44-38,5.72-8.19,11.42-16.39,17.32-24.44,4.11-5.6,8.65-6.43,14.57-2.63,21.58,13.87,42.18,29.14,63.23,43.76,3.53,2.45,7,5.35,6.86,10.37-6.58,10.73-13.14,21.48-19.77,32.17-3.33,5.37-6.9,10.59-10.19,16-13.69,22.37-14.11,45.5-2.31,68.46,31.78,61.83,64.8,123,102.06,181.76,4.64,7.31,9.63,14.37,14.29,21.64,13.13,20.47,32.74,28.68,55.82,29.37,22.26.66,44.47-1.78,66.64-3.73-.5,92.57-27,177.26-76.59,255.19-6.95,10.91-14.46,15.57-28,15.17-35.9-1.07-71.85-.2-107.78-.1-7.26-1-7-7.42-8-12.24-4.26-19.86-9.86-39.33-15.78-58.74a850.72,850.72,0,0,0-97.9-212.17c-13.65-21.3-28.89-41.42-43.18-62.23-13.29-17.34-27.62-33.85-42.41-49.87-26.34-28.53-53.68-56.1-83.61-81a954.13,954.13,0,0,0-138.53-95.35C1960.55,1569,1952.43,1566.47,1948.91,1558.35Z" transform="translate(-842.85 -567.2)"/></g><g id="Слой_33" data-name="Слой 33"><path class="cls-9" d="M2510.45,1392.83c2.77-6,2.53-14.28,1.09-19.93-12.63-49.25-101.82-392.61-152.26-468.17-6.11-9.16-7.55-11.59-12.36-15.6,23.69,1.84,46.92,6.84,70.4,10.12A11.49,11.49,0,0,1,2426,905q47.25,143.51,81.08,290.75c13.82,59.82,28,124.1,39.28,184.46a1.19,1.19,0,0,0,.16.39c2.27,4.21,2.85,3.05-10.34,4.7C2528,1386.35,2517,1390,2510.45,1392.83Z" transform="translate(-842.85 -567.2)"/></g><g id="Слой_32" data-name="Слой 32"><path class="cls-8" d="M1757,1486.4c-20.51-4-41-8.37-61.56-11.89a713.16,713.16,0,0,0-74.09-8.59c-23.5-1.53-46.8-2-70.34-2.05-13.23,0-26.63,1.29-39.94.31-5.45-4.18-4.47-9.85-3.68-15.54,11.29-81.42,24.42-162.49,41.53-243,12-56.7,25.51-113,42.14-168.48,15.88-53,34.38-105.07,63.05-152.8,4.32-7.18,5-13.12.43-19.85,3.16-1.27,6.52-1.26,9.83-1.41,75.46-3.42,150.91-7.13,226.48-6.44,3.26,0,6.65-.77,9.82.85,1.27,3.59-.85,6.52-1.94,9.51-33.32,91-58.5,184.44-80.18,278.83-18.39,80.08-33.66,160.76-46.82,241.85C1766.43,1420.56,1761.92,1453.51,1757,1486.4Z" transform="translate(-842.85 -567.2)"/></g><g id="Слой_31" data-name="Слой 31"><path class="cls-9" d="M1661.13,863.28c13.51-1.58,12.23-.84,4.13,13-21.87,37.36-40.29,75.77-54.36,116.3-8.16,23.49-16.07,47.2-22.18,71.43-6.67,26.44-14.54,52.57-20.73,79.15-6.27,26.9-11.56,54-17.36,81-5.94,27.65-12,55.27-16.52,83.18q-10.5,65-20.28,130.09c-1.32,8.83-3,17.72-2.73,26.76-3.37,1.51-26.45,3.89-28.21,0,1.52-21.27,5.51-42.22,8.8-63.23q12.21-77.88,27.44-155.25c23.69-119.2,52.88-237,92-352.12,2.47-7.24,5.39-14.34,7.58-21.66,1.28-4.29,3.83-5.88,7.92-6C1636,865.46,1659.47,863.21,1661.13,863.28Z" transform="translate(-842.85 -567.2)"/></g></g><g id="Слой_15" data-name="Слой 15"><g id="Слой_44" data-name="Слой 44"><path class="cls-2" d="M2908.65,2329.57c-23.27-1.79-49.2-20.1-67.72,27.19-18.41,46.88,8.65,64.94,4.57,63.36a32.2,32.2,0,0,0-6.07-.19c-15.24.18-31-2.34-46.21-2.36-5.39-2.47-4.12-6.88-3.22-11.15a507.6,507.6,0,0,1,35-107c20.64-44.92,45.91-87,77.57-125.2,44-53.05,95.56-97,155.51-131.14,62.4-35.54,129.38-57.52,200.34-67.1,34.28-4.62,68.85-6.35,103.5-3.92,13.15.92,23.42-4.44,30.49-15.28,2.88-4.41,6.06-7.77,11-9.52,5.71-.06,10.9,2.36,16.35,3.58,12,2.69,13.25,2.26,18.51-8.6,8.5-17.54,17.31-34.91,28.29-51.1a20.55,20.55,0,0,0,6.58-6.87c14.23-21.79,32.43-39.81,53.82-54.6a3.63,3.63,0,0,1,1.94-.32c7.74,0,9.76,5.91,11.63,11.69,8.19,25.35,17.4,50.27,28.79,74.42,18.86,40,42.16,77,72.06,109.65,4.46,4.87,10.09,9.21,7.48,17.15q-23.36,41-46.72,82c-2.29,4-4.82,7.9-7.24,11.85a149.76,149.76,0,0,1-14.61,19.49,30.5,30.5,0,0,0-4.44-2.67c-.9-.44-2.6-1.94-3.47-2.42-16.31-8.87-14-9.46-5.88-26,5.1-10.43,7.75-21,4.53-32.76a36.39,36.39,0,0,0-18.07-22.89c-10.43-5.67-21.25-11-33.17-13.5-16.72-3.47-34.19,4.28-42.24,19.4-2.66,5-4.52,10.36-7,15.46-3.54,7.43-5.58,8.47-13.29,6.27-20.52-5.85-41.24-10.63-62.47-13-2-.23-3.89-1-5.87-1.18-5.67-.67-8.06-4-8-9.47,0-5.33-.36-10.67,0-16,1.31-20.15-11.53-33.77-30.16-37.45a98.25,98.25,0,0,0-40.65.52c-17.08,3.85-27.19,14.28-29.57,32a165.22,165.22,0,0,0-1.68,19.85c-.1,8.65-.69,9.38-9.43,11.09-10.77,2.11-21.64,3.71-32.42,5.76q-16.68,3.18-33,7.93c-7.07,2.07-8.73,1.24-11.68-5.36-2.72-6.07-5.27-12.21-8.77-17.9-9.23-15-25.92-21.93-43-17.53a118.3,118.3,0,0,0-34.58,15.28c-15.49,10-21.15,28.88-14.59,46.69,1.95,5.29,4.82,10.23,7.1,15.41,2.88,6.52,2.63,8.07-3.09,11.57-20.19,12.36-38.88,26.79-57.47,41.37-5.43,4.27-6.92,4.32-12-.37a150.76,150.76,0,0,0-14.36-12.35c-14.29-10.34-33.81-10.47-47.24.87-9.37,7.92-18.23,16.54-24.9,27.11-10.11,16-7.78,35,6,48,5.57,5.26,6.15,5.66,15.21,11.85-13.92,13.92-41.1,51.49-49.06,66.29" transform="translate(-842.85 -567.2)"/></g><g id="Слой_43" data-name="Слой 43"><path class="cls-6" d="M2722.48,2415.69q-83.92-.09-167.86-.17-133.38,0-266.78,0c-20.5,0-20.85-.65-18-20.77,2-14.66,2.36-29.29-5.87-42.63-8.87-14.38-21.4-23.6-38.23-26.18a203,203,0,0,0-24.81-2.52c-10-.29-11.81-2.78-12.18-12.87-1.2-32.6-3.87-65-10.14-97.13-2.49-12.7-1.8-13.77,10.94-17.29,10.31-2.84,20.35-6.37,29.55-11.9,22.86-13.76,29.57-37.26,24.09-61.42-2.5-11-6.31-21.75-10-32.44-9.59-27.74-35-42.17-63.81-36.77-9.87,1.85-19.32,5-28.84,8-7.81,2.5-8.79,2.25-12.42-5.34a615.39,615.39,0,0,0-53.35-91.3c-3.83-5.38-3.63-7.07,2.2-11.45,8-6.06,14.48-13.75,21.9-20.41,17.85-16,17.53-49.68,6.85-65.76-10.06-15.13-22.81-28-36.68-39.31-17.45-14.27-48.05-14.78-67.45,2.66-6.68,6-14.26,11-20.17,17.85-3.54,4.11-6.81,4.2-11,.66-9.89-8.39-19.88-16.68-30.14-24.61-16.08-12.42-33-23.61-50.16-34.53-14.87-9.46-14.18-7.33-6.62-23a171.66,171.66,0,0,0,8.3-19.24c8.65-25.61.81-53.67-26.78-67.67-11.9-6-23.85-12.19-36.68-15.68-18-4.9-35.57-4-51.39,7.75a49.53,49.53,0,0,0-15,18.41c-4.26,8.66-8,17.57-12.08,26.31-3.09,6.59-3.77,7-10.74,4.81-26.74-8.4-54.08-14.14-81.73-18.53-6.57-1-13.16-2-19.74-2.94-9.53-1.38-10.27-2.12-10.44-12.13-.13-8.32-.1-16.65,0-25,.22-23.12-12-38-31.78-47.65a45.54,45.54,0,0,0-18.27-4.83c-14.94-.51-29.91-1.46-44.83,1-28.45,4.76-46.12,24.62-47,53.38-.22,7.32,0,14.65-.09,22-.14,11.23-.6,11.57-11.41,13.29-33.22,5.26-66.34,11-98.62,20.77-7.7,2.32-8.62,1.82-12.14-5.78-3.35-7.25-6.62-14.54-10-21.79-13.3-28.81-44.14-38.12-72.56-27.76a268.18,268.18,0,0,0-31.11,13.55c-16.53,8.55-27.43,21.75-31,40.55a54.45,54.45,0,0,0,2.68,29.43c3.1,8.46,7.21,16.45,11.09,24.56,3.29,6.88,2.92,8.45-3.37,12.26-26.53,16.1-51.31,34.62-75.5,54-3.11,2.49-6,5.31-9,7.87-5.17,4.34-6.76,4.33-12-.19-5.79-5-11.76-9.82-17.18-15.21-20.43-20.31-58.68-20.19-78.51,1.39-5.85,6.36-11.42,13-17.42,19.2-7.26,7.5-7.74,7.24-15.18.38-6.32-5.84-21.22-18.94-22.28-19.72-9.93-11.07-9.52-11.15.53-22.5a768.65,768.65,0,0,1,315-213.51c61.11-22,124-36.34,188.62-41.91a808.57,808.57,0,0,1,118.65-1.12,770.64,770.64,0,0,1,158.27,26.22,715.46,715.46,0,0,1,123.25,46.25,727.38,727.38,0,0,1,78.54,43.14,769.53,769.53,0,0,1,100.19,75.55,903.55,903.55,0,0,1,84.12,86.36,165.21,165.21,0,0,1,9.92,13.72c24.41,27.55,44,58.51,62.29,90.18a768.48,768.48,0,0,1,81.72,203c6.08,24.91,10.13,50.19,14.62,75.4,3.91,22,20.05,29.53,39.85,18.88,24.84-13.35,40.61-45.09,37-73.2-.78-6.1-5-13,1.55-18.73,5.19-2.92,10.91-2.68,16.56-2.7,30-.09,59.94-.39,89.9.14,12.37.22,20.65-4.4,27.28-14.65a456.53,456.53,0,0,0,56-124.27c9.73-34.33,16.73-69.19,19.1-104.89a58.14,58.14,0,0,0-.18-11c-.52-4.34.57-7.91,4.58-10.18,6.5-.12,20.72-.94,21.36-1,24.88-1.47,24.88-1.46,24.93,23.55,0,19-.12,38,.06,56.94.16,17.36,4.79,22.72,21.76,27,40.65,10.35,81.78,13.69,123.71,11.51,19.36-1,38.3-4.48,57.52-6a42.13,42.13,0,0,0,11.56-3c11.67-4.47,15.1-9,15.27-21.68.3-23.64-.09-47.28.22-70.92.07-5.16-1-10.82,3.58-15,7.55-5.8,14.76-1.37,21.51,1.45,16.67,7,29.21,19.44,40.73,32.89,21.32,24.91,37.15,53.36,52.16,82.3a12.85,12.85,0,0,1,1.6,7.68c-.53,6.47-5.23,9.7-10,12.8-39.29,25.39-74.56,55.53-107,89.17-37.21,38.55-68.07,81.65-94.2,128.23-30.36,54.1-51,111.77-63.19,172.56C2729.63,2407.6,2730.67,2414.83,2722.48,2415.69Z" transform="translate(-842.85 -567.2)"/></g><g id="Слой_42" data-name="Слой 42"><path class="cls-10" d="M2722.48,2415.69c2.53-11.35,4.94-22.73,7.6-34,21.74-92.64,63.51-175.32,123.82-248.76A605.75,605.75,0,0,1,2994.65,2007c3.06-2,6.43-3.6,8.32-7,2.4-4,183.89-120.79,386.85-83.26,12.08,8.77,13.5,25.64,6.94,40.93-6.41,14.92-18.36,19.62-37.51,19.16-17.67-.43-35.3-1.38-52.89-.42a582.05,582.05,0,0,0-88,11.19c-79.46,16.65-151.84,48.94-216.77,97.66-75.86,56.92-133.12,128.91-172.43,215.14a526,526,0,0,0-35.79,109.94c-.48,2.27-7,38.85-9,55-1.82,15-9,25.46-23.48,30.41-21.27,7.26-44-8.26-44.46-30.72-.25-11.32,2.19-22.45,3.89-33.61C2721,2427,2721.74,2416.42,2722.48,2415.69Z" transform="translate(-842.85 -567.2)"/></g><g id="Слой_41" data-name="Слой 41"><path class="cls-11" d="M2549.38,2337.79c-36.29,0-72.58.11-108.86-.05-17-.08-29.32-8.38-36.33-23.6s-4.85-30,5.33-43.21c8.08-10.45,19.64-14.46,32.49-14.87,8.65-.27,17.31-.11,26-.1q91.88.06,183.76.12c11.61,0,22.42,2,31.62,9.88,12.7,10.9,17.87,28.57,12.58,44.31a39.86,39.86,0,0,1-37.7,27.58c-36.29.19-72.57.06-108.86.06Z" transform="translate(-842.85 -567.2)"/></g><g id="Слой_40" data-name="Слой 40"><path class="cls-3" d="M1401.32,1474.42c2.27,1.81,4.87,1.86,7.54,1.33,22.7-4.44,45.66-7,68.64-9.38,2-.22,1-.19,6.67-.73,80.7-6,188.27-1.58,272.86,20.76,18.65,5.16,37.44,9,56.11,14.12,1.91.11,93.29,33.53,128.79,52.61,3.18,2.27,4.73,3.48,7,5.22,1.46,16.37-3.63,28.67-13.19,39.84-13.31,15.57-30.9,26.73-50.58,33.8-25.31-11-50.51-22.27-76.65-31.29a780.26,780.26,0,0,0-142.34-34.61,788.32,788.32,0,0,0-127.42-7.7,732.76,732.76,0,0,0-149.38,17.95A760.55,760.55,0,0,0,994,1806c-3.36,3.7-6.79,7.33-10.16,11-7,7.68-10.06,12.66-15.22,18.77-8.57,10.16-16.91,20.53-25.26,30.88-19.5,24.15-53.77,25.45-75.12.13-14.45-17.15-12-43-.24-59.29a633.61,633.61,0,0,1,41.07-50.22c14.86-16.63,29.34-33.61,45.63-48.88,22.83-21.38,45.56-42.93,70.39-62,84.79-65.12,177.72-114.78,280.14-146.14a797.77,797.77,0,0,1,82.35-20.56C1392.48,1478.77,1397.62,1478.42,1401.32,1474.42Z" transform="translate(-842.85 -567.2)"/><path class="cls-3" d="M2234.64,1796.37c24.81,29.35,45,61.86,64.5,94.8,22.93,38.75,42,79.39,58.15,121.41,14.81,38.58,27.62,77.76,36.14,118.26,1,4.56,2.21,9,3.32,13.58,2.23,12.42,4.79,24.72,2.07,37.53-5.57,26.26-18.65,46.82-43.64,58.27-20.93,9.59-39.1-.44-42.52-23.23-9-60-23.7-118.58-46.11-175.1-26.51-66.86-61.25-129-105.44-185.89-2-2.61-3.88-5.37-5.81-8.06,4.78-15.87,14.69-28.71,24.22-41.9,5.35-7.41,13.62-6.2,20.52-8.37C2211.2,1794.16,2222.92,1791.29,2234.64,1796.37Z" transform="translate(-842.85 -567.2)"/><path class="cls-4" d="M2229,1795c-54.71-4.42-71.9,49.55-73.65,52.93-23.63-28.78-48.56-56.34-75.69-81.9A766.61,766.61,0,0,0,1894,1636.56c-3-1.47-5.89-3-8.84-4.57,2.55-3,25.06-7.41,43.83-33,15.88-21.65,19.62-36.33,19.94-40.64,17.91,6.73,33.55,17.66,49.79,27.37a771.06,771.06,0,0,1,80.82,55.11c23.26,18.28,45.83,37.32,67.32,57.78,14.73,14,28.53,28.83,42.45,43.51,16.2,17.08,32.53,34.26,45.35,54.25" transform="translate(-842.85 -567.2)"/></g><g id="Слой_39" data-name="Слой 39"><path class="cls-12" d="M2188.53,1805.47" transform="translate(-842.85 -567.2)"/></g></g><g id="Body"><g id="Слой_50" data-name="Слой 50"><path class="cls-3" d="M3648,2042.05c-5.88-9.82-14.81-17-22-25.78-38.66-47.15-66.37-100.24-85.88-157.8-2.24-6.61-4.29-13.29-6.53-19.91-.94-2.8-1.65-6-5.65-5.9-49.27-42.2-108.75-65.73-167-91.5-88-38.88-179.88-65.6-272.83-89.15-72.9-18.47-146.76-32.17-220.84-44.84-6.74-1.15-13.95-1.71-18.6-8-1.22-4.56-1.22-9.22-1.23-13.87q-.15-82.65.09-165.3c0-6-1.85-12.9,4.63-17.34,14.61,3.59,29.69,3.59,44.51,5.65,28,3.88,56.18,6.77,84.14,11,36.2,5.42,72.52,10.24,108.43,17.44,24.8,5,49.73,9.21,74.48,14.49,29,6.19,58,12.45,86.64,19.74,47.74,12.13,95.47,24.44,142,40.81,18.52,6.51,36.89,13.54,55.64,19.32,19.11,5.88,34.09,17.62,48.34,30.84,31,28.75,61.92,57.58,91.84,87.46,20,20,40.1,39.86,59.17,60.78,8.26,9.06,17.4,17.35,26,26.16,14.86,15.26,28.69,31.47,43.91,46.41,12.22,12,19.45,27.11,20.35,44.41,1.26,24.3.48,48.41-5.69,72.32-11.36,44-32.32,82.81-60.73,117.9C3664.07,2026.12,3656.71,2034.71,3648,2042.05Z" transform="translate(-842.85 -567.2)"/></g><g id="Слой_46" data-name="Слой 46"><path class="cls-13" d="M2402.57,1528.52l-68.85-47.76a24.39,24.39,0,0,1-3.24-2.32c-4.17-4-6.67-2.16-9.3,2-3.9,6.18-8.28,12.07-12.48,18.06-9.95,14.15-19.7,28.45-29.93,42.39-7.6,10.35-17.24,13.54-27.88,10.21-15.93-5-23.12-22.15-15.23-37,2.48-4.68,5.77-8.94,8.81-13.3q52.53-75.3,105.13-150.57a86.38,86.38,0,0,1,7.26-9.5c9.14-9.84,23-11.38,33.49-4a25.28,25.28,0,0,1,7.69,32.85c-3.11,5.85-7.1,11.24-10.91,16.69-10.87,15.54-21.85,31-32.79,46.49-4.36,6.18-4.45,6.31,1.78,10.66q35.21,24.54,70.51,48.94Z" transform="translate(-842.85 -567.2)"/></g><g id="Слой_49" data-name="Слой 49"><path class="cls-3" d="M2686.37,1390.31c3.21,2.27,3,5.73,3,9q.12,87.59,0,175.16a14,14,0,0,1-1,5.83c-4.12,5-10,4.8-15.56,4.82-20.6.1-41.19-1-61.76-1.4-57.5-1.24-115-.49-172.57-.38-4,0-8,.22-11.71,2-2.19,1-4.19,2.44-3.88,5.19s2.62,3.6,4.94,4.21a18.29,18.29,0,0,0,4.94.57c28.23-.61,56.44.56,84.72-1.21,27.15-1.71,54.44-1.19,81.71.45,23.52,1.41,47.12,2,70.69,2.85,6,.21,12-.2,17.34,3.37,2.67,13.38,6.85,26.62,4,40.55a8.12,8.12,0,0,1-1.06,3.62c-4.4,5.24-11.24,5.35-16.95,7.73-10.82,4.5-16.2,11.84-15.86,23.78,1.55,54.53-2.75,109-2,163.52.09,6.32.22,12.62.92,18.92,1.51,13.62-2.25,18.11-16,19.5-3.64.36-7.3.47-11,.56-6.39.09-12.78.12-19.15-.38-18.7,2.92-37.63,3.13-56.47,4.41-34.93,2.35-60.59-11.86-78.78-42-25.27-41.81-50.75-83.47-73.87-126.54-10.37-19.32-20-39-30.92-58.06-17.55-30.62-17.74-60.55,2.77-89.85,8.94-12.77,15.46-27.16,26.15-38.73,5.93-13.93,15.53-25.53,24.15-37.76,19.79-29.18,40.67-57.56,63.16-84.72,6.86-8.29,16.41-13.4,25.22-19.35,11.67-3.16,54-4,64.74-4.35,12.19-.41,24.41-.16,36.62,0C2618.71,1381.66,2675.17,1384.72,2686.37,1390.31Z" transform="translate(-842.85 -567.2)"/></g><g id="Слой_48" data-name="Слой 48"><path class="cls-3" d="M3403.87,1951.73c-3.77-2.09-6.11-5-5.86-9.59.77-14-8.29-20.9-19.37-26.06-14.76-5.38-127.21-15.95-239,22.88-39.32,12.73-77.23,28.62-112.9,49.64-6.57,3.88-13.84,6.51-20,11.16-.87.65-2.52.23-3.81.31-8.76-12.53-14.57-26.73-22.47-39.76-12.23-20.16-25.17-39.72-41.7-56.72-13-13.34-27.71-23.57-46.32-27.32-5.12.39-5.88-3.35-6.51-7a77.65,77.65,0,0,1-.58-12.94c0-30.25-.54-60.51.13-90.75.62-28.62-2.65-57.09-2.25-85.68.15-10.88-5-18.26-15-22.49a101.89,101.89,0,0,1-11.59-5.8c-2.85-1.68-5.94-3.41-4.69-7.68l.38-21.63c3.31-4.59,7.81-3.94,12.61-3.22q83,12.48,164.86,30.85c65.62,14.84,130.85,31.13,194.73,52.36,51.19,17,101.86,35.48,150.92,58.1,23.26,10.73,47,20.59,68.25,35.13,8,5.47,14.43,12.74,20.51,20.31,14.48,18,10.82,38.9,9.47,59.38-.41,6.4-3.46,12.34-4,18.78a360.67,360.67,0,0,0-31.93,60.3c-1.78,4.38-4.17,6-9.15,4.32C3420.55,1955.87,3412.16,1954,3403.87,1951.73Z" transform="translate(-842.85 -567.2)"/></g><g id="Слой_47" data-name="Слой 47"><path class="cls-4" d="M3469.77,1894c-2.79-5.35-2.35-11.14-1.31-16.62,2.18-11.58,1.41-23.21,1.41-34.83,0-11.39-6.3-20.23-13.2-28.35a99.5,99.5,0,0,0-31.22-24.39c-55.85-28.38-113.66-52-172.82-72.51-42.76-14.84-85.89-28.38-129.72-39.6-55.4-14.18-111-27.26-167.28-38-32.34-6.16-64.92-10.78-97.28-16.79-1.95-.36-4-.43-5.94-.64q0-11,0-21.94c19.88,1.89,39.44,5.84,59.06,9.37q38.28,6.88,76.41,14.62c26.69,5.47,53.4,10.78,79.79,17.79,20.22,5.36,40.68,9.92,60.95,15.2q74.4,19.38,147,44.53c39.31,13.62,77.33,30.5,115.56,46.82a876.16,876.16,0,0,1,105.59,54c9.95,5.95,19.1,13.26,28.5,20.11,3.33,2.43,6.32,5.35,2.71,9.88-12.68,11.24-25.76,22-37,34.82C3483.49,1876,3476.87,1885.15,3469.77,1894Z" transform="translate(-842.85 -567.2)"/></g><g id="Слой_19" data-name="Слой 19"><path class="cls-4" d="M2686.39,1580.39l.06,21.93c-66.58-5.47-190.7-5.47-253.35-1.94a130.8,130.8,0,0,1-14.21-1.47c-3.5-.79-8.89-5.3-8.8-8.12.16-5.18,3.14-7.68,7-9.6,4.83-2.42,11.28-2.87,16.71-2.87,59.94,0,119.9-.9,179.81.54C2637.85,1579.44,2662.13,1579.8,2686.39,1580.39Z" transform="translate(-842.85 -567.2)"/></g><g id="Слой_22" data-name="Слой 22"><path class="cls-14" d="M3713.93,1846.38c.33,21.51-4,41.3-10.15,60.74-10.87,34.4-28.59,65.1-51.13,93.11-4.57,5.69-4.81,5.71-9.59.09-21.92-25.77-39.46-54.34-54.49-84.56-11.3-22.7-20.55-46.22-28.83-70.14-2.56-7.41-2.26-8.74,5.16-12.54,25.95-13.32,53.15-22.78,82.16-26.92,13.21-1.89,26.55-1.86,39.76-3.48a29.47,29.47,0,0,1,4-.08c12.57.23,14.54,1.83,19.26,13.28C3714.27,1826.08,3714.19,1836.66,3713.93,1846.38Z" transform="translate(-842.85 -567.2)"/></g></g><g id="Pipe"><g id="Слой_57" data-name="Слой 57"><path class="cls-2" d="M2851.05,1407.61c0,63.57.74,203,2.29,242.11-3.71,4.72-8.53,3-12.88,1.76-46.88-13.69-94.08-11.66-141.42-3-4,.72-7.88,1.71-11.25-1.56l-.25.32c-2.19-3,0-313.64-.28-333.53-.13-8.54,1.3-16.28,5.55-23.78,5.22-9.22,9.77-18.81,14.62-28.25a4.07,4.07,0,0,1,2.53-1.2c54.58,23.31,99.67,50.36,140.76,92.39C2850.12,1368.06,2850.72,1388.39,2851.05,1407.61Z" transform="translate(-842.85 -567.2)"/></g><g id="Слой_56" data-name="Слой 56"><path class="cls-10" d="M2710.14,1256.82l-.81,0-.8-.15c3.94-9.41,4.17-19.27,4.13-29.29-.12-29.92.37-59.85.08-89.76-.1-10.91,3.19-19.75,10-28.28A1153.58,1153.58,0,0,1,2832,990.56c24.88-23.52,51.29-45.37,80.31-63.81,5.52,1.32,3.16,4.91,1.91,7.67-17.8,39.24-15.28,80.39-9.69,121.23,2.46,18,7.45,36.55,22.42,49.77a5.42,5.42,0,0,1,1.21,7.21c-33.8,15.71-60.33,40.11-82.74,69.4-3.31,4.32-5.76,8.89-4.94,14.59-1.49,35.65-1.16,71.27.08,129.93a17,17,0,0,1-.26,1.88c-5,3.39-8.26-.44-11.34-3.06-13.35-11.36-26.32-23.15-40.71-33.28-15.73-11.09-31.86-21.44-49.3-29.68C2729.77,1258.09,2720.42,1255.17,2710.14,1256.82Z" transform="translate(-842.85 -567.2)"/></g><g id="Слой_55" data-name="Слой 55"><path class="cls-10" d="M2934.1,922.37c6.74,3.37,10.18,9,11.89,16.23a353.12,353.12,0,0,1,8.59,55.93c2.35,32.22-2.32,63.4-10.37,94.33-1.68,6.44-3.61,12.79-7.88,18.11-4.26.72-5.57-2.36-7.29-5.31-19.86-34.12-23.46-71.35-21-109.7.33-5.26,1.17-10.52,1.52-15.82A81.12,81.12,0,0,1,2934.1,922.37Z" transform="translate(-842.85 -567.2)"/></g><g id="Слой_54" data-name="Слой 54"><path class="cls-10" d="M2872.76,1653.57c10.36,4.55,15.45,11.23,15.87,23.63,2.1,62.5,1.53,125,1.68,187.49,0,4,.43,20.66.4,25.29-.16,25.93-.6,51.87-.24,77.79.13,9.12-3.66,14.33-11.54,17.62-65.84,18-151.35,17.11-211.31-2-13.51-4.11-17.11-9.15-17.22-23.1-.14-18.28,0-36.57,0-54.86,0-7.64.14-15.29,0-22.94s2-126.17,2-129.82c0-27.93.21-55.87-.07-83.8-.09-8.78,3.14-14.06,11.34-17.73C2758.9,1621.06,2808.88,1629.81,2872.76,1653.57Z" transform="translate(-842.85 -567.2)"/></g><g id="Слой_52" data-name="Слой 52"><path class="cls-6" d="M2670.2,1818.14V1683.33c0-2.33-.07-4.66,0-7,.21-9.26,1-10.5,9.91-13.75,33.48-12.85,131.38-25,183.64,9.48,8.25,4.34,9.57,8.77,9.93,19.26,1.34,23.61-1,199-.92,266.56,0,1.34,0,2.67,0,4-.24,9.63-.89,10.09-10.67,12.12-60.95,12.67-121.56,11-181.91-4-8.94-2.21-9.41-2.43-9.43-12.11q-.12-46.44,0-92.87,0-23.47,0-46.94Z" transform="translate(-842.85 -567.2)"/></g><g id="Слой_51" data-name="Слой 51"><path class="cls-9" d="M2707.9,1258.72c1.16-8.55,6.39-9.44,16.45-7.08a144.19,144.19,0,0,1,34.4,15.37c23.93,14.28,46.84,30,66.95,49.5,4.49,4.36,9.7,8,14.58,11.93a14.42,14.42,0,0,0,4.44,7.43c6.35,5.71,7.21,12.31,5.92,20.64-10.55-1.5-16.48-7.8-23.17-15.18-18.16-20-39.38-36.19-61.88-50.93-13.86-9.08-35.08-19-50.48-25.14C2709.83,1263.16,2707.29,1263.29,2707.9,1258.72Z" transform="translate(-842.85 -567.2)"/></g><g id="Слой_53" data-name="Слой 53"><path class="cls-9" d="M2934.1,922.37c3.55,1.94,5.84,2.83-3.32,10.93-11.57,10.38-19.24,36.55-18.46,79.47.75,28.45,1.12,53.78,24,94.2-1.93,3-4.46,5.21-8.18,5.66-38.74-38.09-35-155.3-15.86-185.88C2920.21,918.54,2924.85,917.61,2934.1,922.37Z" transform="translate(-842.85 -567.2)"/></g></g></svg>