<svg viewBox="0 0 36 38" fill="none" xmlns="http://www.w3.org/2000/svg">
<path d="M4.66825 33.5603H27.245L26.1667 30.0691C26.3267 30.2084 35.4166 38 35.4166 38V3.91875C35.3089 1.80025 33.4849 0 31.2239 0L4.67617 0.00475C2.41675 0.00475 0.583252 1.80817 0.583252 3.92667V29.64C0.583252 31.8741 2.41358 33.5603 4.66825 33.5603ZM21.3692 8.99808L21.317 9.01708L21.336 8.99808H21.3692ZM9.28683 11.0073C12.1891 8.89517 14.8792 8.9965 14.8792 8.9965L15.0961 9.21025C11.5447 10.0573 9.93442 11.6438 9.93442 11.6438C10.0991 11.609 17.27 7.47175 25.9593 11.7483C25.9593 11.7483 24.3459 10.2648 21.013 9.31475L21.3075 9.025C21.7682 9.02658 24.2066 9.11208 26.8159 11.02C26.8159 11.02 29.7356 16.0075 29.7356 22.135C29.639 22.0178 27.9242 24.7728 23.5115 24.8678C23.5115 24.8678 22.7642 24.0223 22.2322 23.2845C24.813 22.5435 25.7788 21.0615 25.7788 21.0615C20.7549 24.225 16.3517 23.731 11.0839 21.5935C11.0348 21.5935 11.0127 21.5713 10.9873 21.546V21.5365C10.962 21.5128 10.9398 21.489 10.8908 21.489H10.7958C10.4728 21.2768 10.2574 21.1723 10.2574 21.1723C10.2574 21.1723 11.2217 22.6543 13.6996 23.3953C13.0488 24.1379 12.4044 24.9818 12.4044 24.9818C7.99325 24.8773 6.38458 22.1223 6.38458 22.1223C6.38458 15.9853 9.28683 11.0073 9.28683 11.0073Z" fill="#5561F5"/>
<path d="M21.6542 20.2207C22.7799 20.2207 23.6967 19.2707 23.6967 18.099C23.6967 16.9353 22.7847 15.9853 21.6542 15.9853V15.99C20.5332 15.99 19.6149 16.9369 19.6117 18.1085C19.6117 19.2707 20.5284 20.2207 21.6542 20.2207Z" fill="#5561F5"/>
<path d="M14.3424 20.2207C15.4682 20.2207 16.3849 19.2707 16.3849 18.099C16.3849 16.9353 15.4745 15.9853 14.3488 15.9853L14.3424 15.99C13.2167 15.99 12.2999 16.9369 12.2999 18.1085C12.2999 19.2707 13.2167 20.2207 14.3424 20.2207Z" fill="#5561F5"/>
</svg>
