<svg viewBox="0 0 54 54" fill="none" xmlns="http://www.w3.org/2000/svg">
<g clip-path="url(#clip0_190_4750)">
<path d="M49.6912 10.6494L54 6.52737V5.62512H39.0735L28.4355 32.1031L16.3327 5.62512H0.68175V6.52737L5.715 12.5866C6.2055 13.0344 6.462 13.6891 6.39675 14.3484V38.1601C6.552 39.0174 6.273 39.8994 5.67 40.5226L0 47.3941V48.2851H16.0762V47.3829L10.4062 40.5226C9.792 39.8971 9.50175 39.0309 9.6255 38.1601V17.5636L23.7375 48.2964H25.3777L37.512 17.5636V42.0459C37.512 42.6916 37.512 42.8244 37.089 43.2474L32.724 47.4706V48.3751H53.901V47.4729L49.6935 43.3531C49.3245 43.0741 49.1332 42.6061 49.212 42.1516V11.8509C49.1332 11.3941 49.3222 10.9261 49.6912 10.6494Z" fill="#1B1B1B"/>
</g>
<defs>
<clipPath id="clip0_190_4750">
<rect width="54" height="54" fill="white"/>
</clipPath>
</defs>
</svg>
