<svg viewBox="0 0 38 38" fill="none" xmlns="http://www.w3.org/2000/svg">
<g clip-path="url(#clip0_190_5820)">
<path d="M33.7645 14.7376C32.5644 14.7376 31.5083 15.2427 30.7309 16.0296C27.8729 14.022 24.0191 12.73 19.7489 12.5922L21.9671 2.44938L29.0304 4.05804C29.0304 5.81238 30.4395 7.24529 32.1685 7.24529C33.9308 7.24529 35.3479 5.77438 35.3479 4.01846C35.3479 2.26254 33.9403 0.791626 32.1701 0.791626C30.9367 0.791626 29.8727 1.54688 29.3423 2.57921L21.5412 0.824876C21.1485 0.718793 20.7638 1.00379 20.6593 1.40279L18.2241 12.5843C13.9871 12.7632 10.1744 14.0536 7.30702 16.0629C6.52961 15.2427 5.43236 14.7376 4.23219 14.7376C-0.220143 14.7376 -1.67839 20.8002 2.39869 22.8728C2.25461 23.514 2.18969 24.198 2.18969 24.8805C2.18969 31.6904 9.75011 37.2083 19.0332 37.2083C28.3559 37.2083 35.9163 31.6904 35.9163 24.8805C35.9163 24.198 35.845 23.4824 35.6693 22.8395C39.664 20.759 38.1931 14.7408 33.7645 14.7376ZM8.86819 23.3035C8.86819 21.5159 10.2774 20.0766 12.0475 20.0766C13.7765 20.0766 15.1873 21.5064 15.1873 23.3035C15.1873 25.0594 13.7781 26.4907 12.0475 26.4907C10.2853 26.4986 8.86819 25.0594 8.86819 23.3035ZM26.0299 30.9003C23.115 33.858 14.8896 33.858 11.9731 30.9003C11.6517 30.6153 11.6517 30.1118 11.9731 29.7872C12.2534 29.5022 12.7505 29.5022 13.0308 29.7872C15.2569 32.1036 22.6416 32.1432 24.9644 29.7872C25.2446 29.5022 25.7418 29.5022 26.022 29.7872C26.3498 30.1134 26.3498 30.6169 26.0299 30.9003ZM25.965 26.497C24.236 26.497 22.8269 25.0673 22.8269 23.313C22.8269 21.5254 24.236 20.0861 25.965 20.0861C27.7273 20.0861 29.1444 21.5159 29.1444 23.313C29.1364 25.0594 27.7273 26.497 25.965 26.497Z" fill="#FF4500"/>
</g>
<defs>
<clipPath id="clip0_190_5820">
<rect width="38" height="38" fill="white"/>
</clipPath>
</defs>
</svg>
