<svg viewBox="0 0 50 54" fill="none" xmlns="http://www.w3.org/2000/svg">
<g clip-path="url(#clip0_190_4733)">
<path d="M44.8625 16.0042C46.8958 14.445 48.6062 12.4988 50 10.2578V10.2555C48.1396 11.1353 46.1604 11.7203 44.0938 12.0037C46.2188 10.6335 47.8417 8.48025 48.6042 5.886C46.6229 7.16175 44.4354 8.06175 42.1042 8.56575C40.2229 6.40125 37.5417 5.0625 34.6167 5.0625C28.9417 5.0625 24.3729 10.0373 24.3729 16.1348C24.3729 17.0122 24.4417 17.856 24.6104 18.6593C16.0896 18.2093 8.54792 13.7992 3.48125 7.0785C2.59792 8.73675 2.07708 10.6335 2.07708 12.6742C2.07708 16.5082 3.90417 19.9058 6.63125 21.8745C4.98333 21.8407 3.36875 21.3232 2 20.511V20.6325C2 26.0123 5.55208 30.4808 10.2125 31.5112C9.37708 31.7588 8.46875 31.8757 7.525 31.8757C6.86875 31.8757 6.20625 31.8353 5.58542 31.6868C6.9125 36.0697 10.6833 39.294 15.1625 39.3997C11.675 42.345 7.24583 44.1202 2.45208 44.1202C1.6125 44.1202 0.80625 44.0798 0 43.9695C4.54167 47.1307 9.92083 48.9375 15.725 48.9375C33.8146 48.9375 45.6042 32.6385 44.8625 16.0042Z" fill="#03A9F4"/>
</g>
<defs>
<clipPath id="clip0_190_4733">
<rect width="50" height="54" fill="white"/>
</clipPath>
</defs>
</svg>
