<svg viewBox="0 0 134 134" fill="none" xmlns="http://www.w3.org/2000/svg">
<circle cx="69" cy="72" r="58" fill="#BDE4E3"/>
<g clip-path="url(#clip0_190_4761)">
<path d="M84.395 44.5434C82.8983 37.4873 78.622 32.6763 76.6975 31.7142C72.3676 29.5493 70.9244 32.9971 69 32.9971C67.0755 32.9971 65.6324 29.5491 61.3024 31.7142C59.3781 32.6763 55.1016 37.4873 53.6049 44.5434C52.1082 51.5995 69 45.8262 69 45.8262C69 45.8262 85.8918 51.5995 84.395 44.5434Z" fill="#EFC80B"/>
<path d="M69 65.6391C85.2964 65.6391 98.5071 60.7568 98.5071 54.7342C98.5071 48.7116 85.2964 43.8293 69 43.8293C52.7037 43.8293 39.4929 48.7116 39.4929 54.7342C39.4929 60.7568 52.7037 65.6391 69 65.6391Z" fill="#FFDC33"/>
<path d="M51.6385 62.6295C49.7154 62.1484 48.4556 63.1764 48.4556 65.1955C48.4556 67.8682 51.0417 74.4164 53.7605 70.3271C56.4793 66.2377 51.6385 62.6295 51.6385 62.6295Z" fill="#FFE1B2"/>
<path d="M86.0346 62.6295C88.1338 62.1484 89.509 63.1764 89.509 65.1955C89.509 67.8682 86.6861 74.4164 83.7184 70.3271C80.7507 66.2377 86.0346 62.6295 86.0346 62.6295Z" fill="#FFE1B2"/>
<path d="M54.9055 85.9575C57.7746 84.1103 57.4537 78.6123 57.4537 77.3294H80.5463C80.5463 78.6123 80.1905 84.1103 83.0594 85.9575L69 101.705L54.9055 85.9575Z" fill="#FFD7A3"/>
<path d="M77.9803 91.4417L83.0593 85.9575C80.1902 84.1105 80.5462 78.6123 80.5462 77.3294H57.4536C59.1104 82.093 70.0691 90.2657 77.9803 91.4417Z" fill="#FDC88E"/>
<path d="M98.507 113C100.633 113 102.356 111.277 102.356 109.151V101.507C102.356 95.8622 97.957 89.8358 92.5807 88.1157L84.5545 85.5474C80.2362 88.8493 74.0651 93.3536 68.9999 93.3536C63.9348 93.3536 57.7636 88.8493 53.4454 85.5474L45.4191 88.1157C40.0428 89.8358 35.644 95.8622 35.644 101.507V109.151C35.644 111.277 37.3671 113 39.4928 113H98.507Z" fill="#84BFEA"/>
<path d="M102.272 109.945H100.281V107.248H102.356V105.284H100.281V102.586H102.356V101.507C102.356 101.213 102.337 100.918 102.313 100.622H100.281V97.925H101.789C101.586 97.2589 101.334 96.6022 101.032 95.961H100.281V94.5541C99.5657 93.3637 98.6928 92.262 97.7024 91.2996H95.6194V89.6052C94.6614 88.9669 93.6413 88.4549 92.5809 88.1155L87.964 86.6381H86.2967V86.1044L84.5547 85.547C84.4825 85.6022 84.4059 85.6601 84.3326 85.7159V86.6381H83.111C82.0334 87.4425 80.8757 88.2748 79.6712 89.0726V91.2994H76.9739V90.7336C74.7112 92.0077 72.3886 92.9831 70.2153 93.2633H70.3487V95.9606H67.6514V93.2633H67.7847C65.6113 92.9831 63.2887 92.0075 61.0259 90.7334V91.2992H58.3286V89.0724C57.1241 88.2746 55.9664 87.4423 54.8889 86.6379H53.6672V85.7157C53.5941 85.6599 53.5173 85.602 53.4452 85.5468L51.7032 86.1042V86.6379H50.0358L45.4189 88.1153C44.3585 88.4545 43.3385 88.9665 42.3804 89.605V91.2994H40.2976C39.3072 92.2618 38.4344 93.3633 37.7194 94.5539V95.9608H36.968C36.6666 96.602 36.414 97.2585 36.2108 97.9249H37.7194V100.622H35.6863C35.663 100.918 35.644 101.213 35.644 101.507V102.586H37.7192V105.284H35.644V107.248H37.7192V109.945H35.7279C35.8881 110.708 36.2759 111.385 36.8152 111.909H37.7192V112.548C38.2523 112.827 38.8494 113 39.4928 113H39.6835V111.909H42.3808V113H44.3451V111.909H47.042V113H49.006V111.909H51.7034V113H53.6674V111.909H56.3647V113H58.3288V111.909H61.0261V113H62.9904V111.909H65.6877V113H67.6517V111.909H70.3491V113H72.3131V111.909H75.0104V113H76.9745V111.909H79.6718V113H81.6359V111.909H84.3332V113H86.2973V111.909H88.9946V113H90.9586V111.909H93.6559V113H95.6202V111.909H98.3175V113H98.5082C99.1516 113 99.7487 112.827 100.282 112.548V111.909H101.186C101.724 111.385 102.112 110.708 102.272 109.945ZM42.3806 109.945H39.6833V107.248H42.3806V109.945ZM42.3806 105.284H39.6833V102.586H42.3806V105.284ZM42.3806 100.622H39.6833V97.925H42.3806V100.622ZM42.3806 95.961H39.6833V93.2637H42.3806V95.961ZM47.042 109.945H44.3447V107.248H47.042V109.945ZM47.042 105.284H44.3447V102.586H47.042V105.284ZM47.042 100.622H44.3447V97.925H47.042V100.622ZM47.042 95.961H44.3447V93.2637H47.042V95.961ZM47.042 91.2996H44.3447V88.6023H47.042V91.2996ZM51.7034 109.945H49.006V107.248H51.7034V109.945ZM51.7034 105.284H49.006V102.586H51.7034V105.284ZM51.7034 100.622H49.006V97.925H51.7034V100.622ZM51.7034 95.961H49.006V93.2637H51.7034V95.961ZM51.7034 91.2996H49.006V88.6023H51.7034V91.2996ZM56.3645 109.945H53.6672V107.248H56.3645V109.945ZM56.3645 105.284H53.6672V102.586H56.3645V105.284ZM56.3645 100.622H53.6672V97.925H56.3645V100.622ZM56.3645 95.961H53.6672V93.2637H56.3645V95.961ZM56.3645 91.2996H53.6672V88.6023H56.3645V91.2996ZM61.0259 109.945H58.3286V107.248H61.0259V109.945ZM61.0259 105.284H58.3286V102.586H61.0259V105.284ZM61.0259 100.622H58.3286V97.925H61.0259V100.622ZM61.0259 95.961H58.3286V93.2637H61.0259V95.961ZM65.6873 109.945H62.99V107.248H65.6873V109.945ZM65.6873 105.284H62.99V102.586H65.6873V105.284ZM65.6873 100.622H62.99V97.925H65.6873V100.622ZM65.6873 95.961H62.99V93.2637H65.6873V95.961ZM70.3485 109.945H67.6512V107.248H70.3485V109.945ZM70.3485 105.284H67.6512V102.586H70.3485V105.284ZM70.3485 100.622H67.6512V97.925H70.3485V100.622ZM75.0099 109.945H72.3125V107.248H75.0099V109.945ZM75.0099 105.284H72.3125V102.586H75.0099V105.284ZM75.0099 100.622H72.3125V97.925H75.0099V100.622ZM75.0099 95.961H72.3125V93.2637H75.0099V95.961ZM79.6712 109.945H76.9739V107.248H79.6712V109.945ZM79.6712 105.284H76.9739V102.586H79.6712V105.284ZM79.6712 100.622H76.9739V97.925H79.6712V100.622ZM79.6712 95.961H76.9739V93.2637H79.6712V95.961ZM84.3326 109.945H81.6353V107.248H84.3326V109.945ZM84.3326 105.284H81.6353V102.586H84.3326V105.284ZM84.3326 100.622H81.6353V97.925H84.3326V100.622ZM84.3326 95.961H81.6353V93.2637H84.3326V95.961ZM84.3326 91.2996H81.6353V88.6023H84.3326V91.2996ZM88.9938 109.945H86.2965V107.248H88.9938V109.945ZM88.9938 105.284H86.2965V102.586H88.9938V105.284ZM88.9938 100.622H86.2965V97.925H88.9938V100.622ZM88.9938 95.961H86.2965V93.2637H88.9938V95.961ZM88.9938 91.2996H86.2965V88.6023H88.9938V91.2996ZM93.6552 109.945H90.9578V107.248H93.6552V109.945ZM93.6552 105.284H90.9578V102.586H93.6552V105.284ZM93.6552 100.622H90.9578V97.925H93.6552V100.622ZM93.6552 95.961H90.9578V93.2637H93.6552V95.961ZM93.6552 91.2996H90.9578V88.6023H93.6552V91.2996ZM98.3165 109.945H95.6192V107.248H98.3165V109.945ZM98.3165 105.284H95.6192V102.586H98.3165V105.284ZM98.3165 100.622H95.6192V97.925H98.3165V100.622ZM98.3165 95.961H95.6192V93.2637H98.3165V95.961Z" fill="#9ECDEF"/>
<path d="M69 93.3534L63.647 98.7063C63.0896 99.2637 62.1661 99.1912 61.7023 98.5536L52.322 85.6557L55.31 82.6676C55.7926 82.1851 56.5683 82.1648 57.0754 82.6212L69 93.3534Z" fill="#EFC80B"/>
<path d="M69 93.3534L74.3529 98.7063C74.9103 99.2637 75.8338 99.1912 76.2977 98.5536L85.6779 85.6557L82.6899 82.6676C82.2074 82.1851 81.4316 82.1648 80.9245 82.6212L69 93.3534Z" fill="#EFC80B"/>
<path d="M51.8391 53.9544C51.5391 55.7693 51.5227 57.9515 51.5227 60.5447C51.5227 70.8185 57.2792 83.6373 69.0002 83.6373C80.7212 83.6373 86.4777 70.8185 86.4777 60.5447C86.4777 57.9513 86.4613 55.7693 86.1613 53.9544C81.4593 52.3699 75.4952 51.4198 69.0004 51.4198C62.5056 51.4198 56.5409 52.3697 51.8391 53.9544Z" fill="#FFE1B2"/>
<path d="M69.6815 73.2247C69.6815 71.5307 68.0377 71.1472 66.9553 71.5578C64.9708 72.3105 62.7858 74.4105 60.9417 73.1118C60.9417 73.1118 61.5831 75.8224 62.6653 75.8224C64.8302 75.8222 69.6815 76.1047 69.6815 73.2247Z" fill="#543D38"/>
<path d="M69.1626 73.2247C69.1626 71.5307 70.8063 71.1472 71.8888 71.5578C73.8733 72.3105 76.0583 74.4105 77.9024 73.1118C77.9024 73.1118 77.261 75.8224 76.1787 75.8224C74.0139 75.8222 69.1626 76.1047 69.1626 73.2247Z" fill="#543D38"/>
<path d="M90.8096 87.3815L85.6779 85.7393V101.525C85.6779 102.113 85.2882 102.632 84.7181 102.772C80.3753 103.842 74.9278 104.482 69 104.482C63.0721 104.482 57.6247 103.842 53.2819 102.772C52.7116 102.632 52.3221 102.113 52.3221 101.525V85.7393L47.1904 87.3815V113H90.8097V87.3815H90.8096Z" fill="#41A0CE"/>
<path d="M51.125 62.7955L54.5893 63.4342C54.5893 63.4342 55.9421 55.8478 56.6674 52.696C54.7753 53.0736 52.9908 53.5279 51.364 54.0613C51.0556 55.8762 51.0388 58.0584 51.0388 60.6516C51.039 61.3559 51.0694 62.0725 51.125 62.7955Z" fill="#543D38"/>
<path d="M86.8747 62.7955L83.4104 63.4342C83.4104 63.4342 82.0575 55.8478 81.3323 52.696C83.2244 53.0736 85.0089 53.5279 86.6357 54.0613C86.9441 55.8762 86.9609 58.0584 86.9609 60.6516C86.9609 61.3559 86.9303 62.0725 86.8747 62.7955Z" fill="#543D38"/>
<path d="M76.5372 55.8299L79.6154 52.3258C76.3475 51.748 72.7681 51.4198 68.9999 51.4198C66.7065 51.4198 64.4845 51.544 62.3557 51.7671C64.3681 51.6294 72.2873 52.6959 76.5372 55.8299Z" fill="#543D38"/>
<path d="M68.7933 83.9266C76.4408 83.9266 82.3885 78.8296 84.3068 71.4533C82.5355 73.2246 80.4262 77.6072 74.3216 78.8708C71.9311 79.3658 71.4481 78.2985 69.1589 78.2985C66.8698 78.2985 66.3988 79.3658 64.0083 78.8708C57.9037 77.6072 55.1296 72.8644 53.3584 71.0932C55.2767 78.4694 61.1458 83.9266 68.7933 83.9266Z" fill="#543D38"/>
<path d="M61.5606 68.2988C62.5088 68.2988 63.2775 67.2739 63.2775 66.0096C63.2775 64.7454 62.5088 63.7205 61.5606 63.7205C60.6124 63.7205 59.8438 64.7454 59.8438 66.0096C59.8438 67.2739 60.6124 68.2988 61.5606 68.2988Z" fill="url(#paint0_linear_190_4761)"/>
<path d="M76.4403 68.2988C77.3885 68.2988 78.1571 67.2739 78.1571 66.0096C78.1571 64.7454 77.3885 63.7205 76.4403 63.7205C75.4921 63.7205 74.7234 64.7454 74.7234 66.0096C74.7234 67.2739 75.4921 68.2988 76.4403 68.2988Z" fill="url(#paint1_linear_190_4761)"/>
<path d="M64.9938 60.8552C64.8902 60.8552 64.7861 60.8272 64.6916 60.7688C61.5103 58.7881 59.438 60.1204 58.5532 60.6898L58.4331 60.7671C58.1652 60.9359 57.8121 60.8558 57.6433 60.5891C57.4745 60.3218 57.554 59.9687 57.8213 59.7993L57.9346 59.7272C58.9098 59.0994 61.5023 57.4341 65.2971 59.7976C65.5655 59.9647 65.6474 60.3178 65.4803 60.5857C65.3715 60.7596 65.185 60.8552 64.9938 60.8552Z" fill="url(#paint2_linear_190_4761)"/>
<path d="M73.0069 60.8553C72.8158 60.8553 72.6292 60.7597 72.5205 60.5857C72.3534 60.3173 72.4352 59.9642 72.7036 59.7977C76.4991 57.433 79.091 59.1001 80.0667 59.7273L80.1795 59.7994C80.4467 59.9682 80.5257 60.3219 80.3574 60.5892C80.1886 60.8564 79.8349 60.936 79.5677 60.7672L79.4475 60.6905C78.5633 60.1216 76.4899 58.7887 73.3085 60.7694C73.2147 60.8272 73.1105 60.8553 73.0069 60.8553Z" fill="url(#paint3_linear_190_4761)"/>
</g>
<path d="M23.9181 25.0807C12.6602 35.2966 5.97594 52.3328 4.57839 63.5352C4.34468 65.1626 1.80766 64.8958 2.01331 61.4584C2.21895 58.0209 5.71388 50.3641 7.56307 44.3247C9.41226 38.2853 15.8338 29.4718 20.9293 24.023C27.1256 17.397 37.5041 11.8417 40.0367 10.9935C42.4361 10.1899 46.543 11.8527 43.2151 13.3179C39.8871 14.783 35.176 14.8649 23.9181 25.0807Z" fill="#BDE4E3"/>
<path d="M106.3 120.974C109.009 118.395 113.375 117.433 122.083 104.972C131.111 92.0516 129.817 88.9542 131.024 89.5455C133.565 90.7908 128.514 98.8262 124.756 105.271C120.186 113.107 111.324 119.796 109.375 121.411C106.716 123.614 104.757 122.443 106.3 120.974Z" fill="#BDE4E3"/>
<path d="M72.7048 9.48871C68.0709 8.93455 64.1062 7.68526 55.673 9.81628C53.172 10.4483 52.8514 8.6435 55.0835 8.04204C63.2229 5.84878 68.1543 7.05609 70.6836 7.13014C74.1353 7.23119 74.8195 9.7416 72.7048 9.48871Z" fill="#BDE4E3"/>
<defs>
<linearGradient id="paint0_linear_190_4761" x1="61.5606" y1="39.3981" x2="61.5606" y2="80.6031" gradientUnits="userSpaceOnUse">
<stop stop-color="#957E7F"/>
<stop offset="1" stop-color="#373638"/>
</linearGradient>
<linearGradient id="paint1_linear_190_4761" x1="76.4403" y1="39.3981" x2="76.4403" y2="80.6031" gradientUnits="userSpaceOnUse">
<stop stop-color="#957E7F"/>
<stop offset="1" stop-color="#373638"/>
</linearGradient>
<linearGradient id="paint2_linear_190_4761" x1="61.5606" y1="53.4154" x2="61.5606" y2="64.4315" gradientUnits="userSpaceOnUse">
<stop stop-color="#957E7F"/>
<stop offset="1" stop-color="#373638"/>
</linearGradient>
<linearGradient id="paint3_linear_190_4761" x1="76.4401" y1="53.4155" x2="76.4401" y2="64.4315" gradientUnits="userSpaceOnUse">
<stop stop-color="#957E7F"/>
<stop offset="1" stop-color="#373638"/>
</linearGradient>
<clipPath id="clip0_190_4761">
<rect width="82" height="82" fill="white" transform="translate(28 31)"/>
</clipPath>
</defs>
</svg>
