<svg viewBox="0 0 19.28 18.78" fill="none" xmlns="http://www.w3.org/2000/svg">
<path d="M7.23371 18.8101C7.43607 16.8988 7.49263 15.0293 7.26275 13.1234C7.21049 12.6651 6.40323 12.4623 6.37743 13.0612C6.25292 14.2798 6.12841 15.4985 6.0039 16.7171C3.42986 12.9582 -0.598054 6.73664 3.26472 3.42308C7.5492 -0.20831 15.0003 0.999878 19.5003 3.49988C19.6358 3.69772 20.1358 3.19768 20.0003 2.99985C16.0003 -0.000129454 7.50727 -0.906117 2.74368 2.70463C-1.74917 6.15903 2.37788 12.8649 5.01449 16.8425C4.17584 16.2543 3.3632 15.6193 2.52454 15.0312C2.03489 14.6981 1.59255 15.495 2.0822 15.8281C3.572 16.9003 5.0618 17.9725 6.5516 19.0447C6.80685 19.2477 7.19737 19.0965 7.23371 18.8101Z" fill="#EFF8F7"/>
</svg>
