<svg viewBox="3 1 46.75 19.03"  fill="none" xmlns="http://www.w3.org/2000/svg">
<path d="M45.5188 3.47007C43.288 2.26958 40.9905 1.42125 38.5159 0.939324C37.9974 0.834527 37.7682 1.66571 38.246 1.89027C39.2568 2.33226 40.2603 2.71793 41.2566 3.04728C36.1437 3.42146 29.8113 5.21278 26.51 9.18905C25.0026 8.81121 23.4691 8.66577 22.0678 8.67502C13.0644 8.46388 6.32497 14.4874 1.03354 21.2973C0.889822 21.4876 1.13964 21.6844 1.28336 21.494C4.79075 17.3766 8.51887 13.2307 13.5021 10.9838C17.0537 9.37996 21.9502 8.63296 26.1268 9.6966C25.4561 10.5848 24.9728 11.6206 24.6696 12.7476C23.9819 15.2412 24.5881 18.1974 26.9584 19.6089C28.8987 20.7324 31.437 20.4045 32.6389 18.4171C34.0252 16.1196 33.1357 13.1427 31.233 11.4417C30.2192 10.5421 29.0762 9.94543 27.7822 9.48277C27.8853 9.41219 27.9332 9.34875 28.029 9.22186C32.2277 5.24418 38.4788 3.69238 44.058 3.88778C44.1132 3.88065 44.1684 3.87353 44.2236 3.8664C44.3412 3.90846 44.4588 3.95052 44.5286 4.05602C43.6705 4.79667 42.7906 5.36837 41.7307 5.84882C41.1455 6.09617 41.5451 7.0179 42.1303 6.77055C43.5619 6.12757 44.6959 5.35129 45.7862 4.23711C45.9778 3.98333 45.8165 3.60338 45.5188 3.47007ZM30.1294 11.5843C31.5658 12.7156 32.5639 14.3616 32.4104 16.2136C32.112 19.115 29.0467 20.1407 26.916 18.412C24.1607 16.1914 25.3506 12.3734 27.2886 10.0046C28.2994 10.4466 29.2623 10.952 30.1294 11.5843Z" fill="#EFF8F7"/>
</svg>
