<svg viewBox="0 0 20.65 16.38" fill="none" xmlns="http://www.w3.org/2000/svg">
<path d="M0.190504 0.357519C0.0406304 0.336122 0.0779914 0.0865823 0.227865 0.107979C5.71062 0.635864 9.59132 4.70716 13.0012 8.68575C12.9272 7.98703 12.8532 7.28831 12.7505 6.61098C12.6817 6.21883 13.3036 6.1547 13.3724 6.54684C13.6289 7.73039 13.9067 8.94247 14.1345 10.1474C14.1758 10.3827 13.9536 10.5039 13.7537 10.4754C13.76 10.6037 13.7663 10.732 13.7939 10.8889C13.8139 11.0957 13.6342 11.2739 13.4343 11.2454C12.1716 10.9886 10.9738 10.6392 9.79841 10.1401C9.46365 9.99032 9.67448 9.43421 10.0592 9.59108C11.0997 9.96901 12.0976 10.2899 13.1605 10.5181C13.1479 10.2614 13.1353 10.0048 13.1227 9.74809C9.63658 5.42727 5.84832 1.42015 0.190504 0.357519Z" fill="#EFF8F7"/>
</svg>
