<svg viewBox="0 0 16.84 15.23" fill="none" xmlns="http://www.w3.org/2000/svg">
<path d="M16.8383 0.407964C10.3706 2.52553 5.17502 7.41726 1.43335 13.107C1.44345 12.9972 1.39441 12.9374 1.40451 12.8276C1.62523 11.0211 1.84595 9.21461 2.12581 7.35821C2.17125 6.86417 1.4241 6.68473 1.27048 7.16881C0.552852 9.04031 0.332132 10.8468 0.544129 12.6931C0.414298 13.5115 0.338557 14.3349 0.208727 15.1533C0.168331 15.5925 0.645038 15.747 0.935683 15.5523C3.31998 13.9449 5.50812 12.0979 7.5001 10.0115C7.92417 9.5523 7.33569 8.83388 6.91162 9.29309C5.40285 10.8704 3.80105 12.273 2.10117 13.556C5.64163 7.68162 10.9136 3.73798 16.9753 0.697355C17.1477 0.602496 17.0056 0.367998 16.8383 0.407964Z" fill="#EFF8F7"/>
</svg>
