<svg viewBox="0 0 23.41 17.19" fill="none" xmlns="http://www.w3.org/2000/svg">
<path d="M1.26618 0.652957C0.9738 2.56032 0.734037 4.45407 0.441658 6.36143C0.370021 6.95237 1.28418 7.23099 1.35582 6.64005C1.52686 5.56545 1.6979 4.49086 1.86894 3.41627C6.18372 11.63 13.9126 18.5024 23.6113 17.3665C23.9408 17.3385 23.935 16.8821 23.5916 16.8565C13.7263 17.3485 5.99742 10.4762 2.09774 1.69708C2.09774 1.69708 2.09773 1.69708 2.08385 1.64343C3.04258 2.3112 3.94869 2.99259 4.89353 3.60671C5.37289 3.9406 5.83768 3.13344 5.35832 2.79955C4.23884 1.94442 3.08062 1.15654 1.92241 0.368669C1.70903 0.194919 1.302 0.357486 1.26618 0.652957Z" fill="#EFF8F7"/>
</svg>
