<svg viewBox="0 0 18.97 13.03" fill="none" xmlns="http://www.w3.org/2000/svg">
<path d="M18.5604 11.418C10.3757 14.1694 3.94497 8.3228 1.67959 1.37571C3.36036 1.92598 5.04113 2.54503 6.79497 3.09529C7.45267 3.30164 7.74497 2.33868 7.08728 2.13233C5.1142 1.30693 3.14113 0.687883 1.16805 5.26235e-05C0.802664 -0.137514 0.43728 0.206402 0.43728 0.550317C0.43728 0.825449 0.43728 1.16936 0.43728 1.4445C-0.0742586 3.30164 -0.147336 4.88365 0.364203 6.74079C0.510357 7.42862 1.46036 7.22227 1.46036 6.67201C1.46036 5.77783 1.53343 4.95243 1.53343 4.05825C4.60266 10.3175 11.2527 15.2011 18.8527 11.9683C19.145 11.8307 18.9257 11.2805 18.5604 11.418Z" fill="#EFF8F7"/>
</svg>
