<svg viewBox="0 0 29.93 30.54" fill="none" xmlns="http://www.w3.org/2000/svg">
<path d="M30.6524 30.0925C29.9066 28.4565 29.0246 26.9767 27.8532 25.6304C27.8099 25.6079 27.8331 25.5632 27.7898 25.5407C27.4927 25.1594 26.8844 25.6947 27.115 26.0983C27.7262 27.0401 28.2276 27.9816 28.5726 29.0121C24.105 26.0671 19.4748 23.435 14.6125 21.2497C12.1597 20.1459 9.61396 19.2208 7.18435 18.0723C5.83801 17.4864 4.4081 16.7436 3.20416 15.7777C2.10699 14.924 1.62726 14.7883 2.26033 13.3577C2.82685 11.9494 3.24625 11.8834 4.67007 11.2609C7.04877 10.2831 9.51252 10.2007 12.049 9.8724C13.4604 9.69747 15.0313 9.32157 15.9011 8.07074C18.0261 5.14495 15.2624 1.77964 12.9551 0.183812C12.8685 0.138796 12.7988 0.272882 12.8622 0.362594C13.8433 1.43977 14.8941 2.38287 15.5161 3.72758C16.8205 6.61862 14.6506 8.7833 12.0042 9.1113C9.93043 9.39621 7.92941 9.43513 5.89275 9.96634C3.61002 10.6535 -0.991072 12.5201 1.45542 15.4369C4.4559 18.9819 10.1787 20.252 14.2379 22.0768C19.0569 24.2395 23.687 26.8716 28.068 29.7716C27.2555 29.7469 26.3997 29.6996 25.564 29.7196C25.0146 29.718 25.0564 30.591 25.6058 30.5926C27.1642 30.6643 28.7025 30.6688 30.2175 30.718C30.5038 30.6964 30.7994 30.3392 30.6524 30.0925Z" fill="#EFF8F7"/>
</svg>
