<svg viewBox="0 0 50 50" fill="none" xmlns="http://www.w3.org/2000/svg">
<mask id="mask0_190_5167" style="mask-type:alpha" maskUnits="userSpaceOnUse" x="0" y="0" width="50" height="50">
<path d="M50 25C50 11.1929 38.8071 0 25 0C11.1929 0 0 11.1929 0 25C0 38.8071 11.1929 50 25 50C38.8071 50 50 38.8071 50 25Z" fill="white"/>
</mask>
<g mask="url(#mask0_190_5167)">
<path d="M6.25 0H0V6.25H6.25V0Z" fill="#81B7F7"/>
<path d="M18.75 0H12.5V6.25H18.75V0Z" fill="#E1DF26"/>
<path d="M31.25 0H25V6.25H31.25V0Z" fill="#6AAEE3"/>
<path d="M43.75 0H37.5V6.25H43.75V0Z" fill="#6AAEE3"/>
<path d="M12.5 0H6.25V6.25H12.5V0Z" fill="#6AAEE3"/>
<path d="M25 0H18.75V6.25H25V0Z" fill="#6AAEE3"/>
<path d="M37.5 0H31.25V6.25H37.5V0Z" fill="#6AAEE3"/>
<path d="M50 0H43.75V6.25H50V0Z" fill="#6AAEE3"/>
<path d="M6.25 6.25H0V12.5H6.25V6.25Z" fill="#6AAEE3"/>
<path d="M6.25 12.5H0V18.75H6.25V12.5Z" fill="#81B7F7"/>
<path d="M6.25 18.75H0V25H6.25V18.75Z" fill="#81B7F7"/>
<path d="M6.25 25H0V31.25H6.25V25Z" fill="#6AAEE3"/>
<path d="M6.25 31.25H0V37.5H6.25V31.25Z" fill="#6AAEE3"/>
<path d="M6.25 37.5H0V43.75H6.25V37.5Z" fill="#81B7F7"/>
<path d="M6.25 43.75H0V50H6.25V43.75Z" fill="#6AAEE3"/>
<path d="M18.75 6.25H12.5V12.5H18.75V6.25Z" fill="#6AAEE3"/>
<path d="M18.75 12.5H12.5V18.75H18.75V12.5Z" fill="#6AAEE3"/>
<path d="M18.75 18.75H12.5V25H18.75V18.75Z" fill="#6AAEE3"/>
<path d="M18.75 25H12.5V31.25H18.75V25Z" fill="#E1DF26"/>
<path d="M18.75 31.25H12.5V37.5H18.75V31.25Z" fill="#6AAEE3"/>
<path d="M18.75 37.5H12.5V43.75H18.75V37.5Z" fill="#E1DF26"/>
<path d="M18.75 43.75H12.5V50H18.75V43.75Z" fill="#6AAEE3"/>
<path d="M31.25 6.25H25V12.5H31.25V6.25Z" fill="#6AAEE3"/>
<path d="M31.25 12.5H25V18.75H31.25V12.5Z" fill="#81B7F7"/>
<path d="M31.25 18.75H25V25H31.25V18.75Z" fill="#81B7F7"/>
<path d="M31.25 25H25V31.25H31.25V25Z" fill="#6AAEE3"/>
<path d="M31.25 31.25H25V37.5H31.25V31.25Z" fill="#D4D132"/>
<path d="M31.25 37.5H25V43.75H31.25V37.5Z" fill="#6AAEE3"/>
<path d="M31.25 43.75H25V50H31.25V43.75Z" fill="#E1DF26"/>
<path d="M43.75 6.25H37.5V12.5H43.75V6.25Z" fill="#6AAEE3"/>
<path d="M43.75 12.5H37.5V18.75H43.75V12.5Z" fill="#E1DF26"/>
<path d="M43.75 18.75H37.5V25H43.75V18.75Z" fill="#6AAEE3"/>
<path d="M43.75 25H37.5V31.25H43.75V25Z" fill="#6AAEE3"/>
<path d="M43.75 31.25H37.5V37.5H43.75V31.25Z" fill="#6AAEE3"/>
<path d="M43.75 37.5H37.5V43.75H43.75V37.5Z" fill="#D4D132"/>
<path d="M43.75 43.75H37.5V50H43.75V43.75Z" fill="#6AAEE3"/>
<path d="M12.5 6.25H6.25V12.5H12.5V6.25Z" fill="#E1DF26"/>
<path d="M12.5 12.5H6.25V18.75H12.5V12.5Z" fill="#6AAEE3"/>
<path d="M12.5 18.75H6.25V25H12.5V18.75Z" fill="#D4D132"/>
<path d="M12.5 25H6.25V31.25H12.5V25Z" fill="#81B7F7"/>
<path d="M12.5 31.25H6.25V37.5H12.5V31.25Z" fill="#6AAEE3"/>
<path d="M12.5 37.5H6.25V43.75H12.5V37.5Z" fill="#6AAEE3"/>
<path d="M12.5 43.75H6.25V50H12.5V43.75Z" fill="#6AAEE3"/>
<path d="M25 6.25H18.75V12.5H25V6.25Z" fill="#6AAEE3"/>
<path d="M25 12.5H18.75V18.75H25V12.5Z" fill="#D4D132"/>
<path d="M25 18.75H18.75V25H25V18.75Z" fill="#6AAEE3"/>
<path d="M25 25H18.75V31.25H25V25Z" fill="#81B7F7"/>
<path d="M25 31.25H18.75V37.5H25V31.25Z" fill="#6AAEE3"/>
<path d="M25 37.5H18.75V43.75H25V37.5Z" fill="#81B7F7"/>
<path d="M25 43.75H18.75V50H25V43.75Z" fill="#81B7F7"/>
<path d="M37.5 6.25H31.25V12.5H37.5V6.25Z" fill="#E1DF26"/>
<path d="M37.5 12.5H31.25V18.75H37.5V12.5Z" fill="#6AAEE3"/>
<path d="M37.5 18.75H31.25V25H37.5V18.75Z" fill="#6AAEE3"/>
<path d="M37.5 25H31.25V31.25H37.5V25Z" fill="#6AAEE3"/>
<path d="M37.5 31.25H31.25V37.5H37.5V31.25Z" fill="#6AAEE3"/>
<path d="M37.5 37.5H31.25V43.75H37.5V37.5Z" fill="#6AAEE3"/>
<path d="M37.5 43.75H31.25V50H37.5V43.75Z" fill="#D4D132"/>
<path d="M50 6.25H43.75V12.5H50V6.25Z" fill="#6AAEE3"/>
<path d="M50 12.5H43.75V18.75H50V12.5Z" fill="#6AAEE3"/>
<path d="M50 18.75H43.75V25H50V18.75Z" fill="#D4D132"/>
<path d="M50 25H43.75V31.25H50V25Z" fill="#6AAEE3"/>
<path d="M50 31.25H43.75V37.5H50V31.25Z" fill="#81B7F7"/>
<path d="M50 37.5H43.75V43.75H50V37.5Z" fill="#6AAEE3"/>
<path d="M50 43.75H43.75V50H50V43.75Z" fill="#81B7F7"/>
</g>
</svg>
