<svg width="100%" height="100%" viewBox="0 0 54 50" fill="none" xmlns="http://www.w3.org/2000/svg">
<g clip-path="url(#clip0_190_4552)">
<g clip-path="url(#clip1_190_4552)">
<path d="M39.3189 13.6046L44.539 16.6584L45.1889 12.5884L31.0903 10.507L27.8115 33.8005" fill="#6F9935"/>
<path d="M44.7263 15.4856L38.9178 12.0875L28.2269 30.8505L27.9784 32.6158L28.3595 32.8387L39.3189 13.6044L44.539 16.6583L44.7263 15.4856Z" fill="#658B30"/>
<path d="M39.1291 13.9377L35.5847 13.3843L35.4275 13.3616C34.882 14.5505 33.7828 15.3817 32.5027 15.573L32.4805 15.7319L30.8254 28.5111L39.1291 13.9377Z" fill="#AAC16B"/>
<path d="M31.1977 25.6366L30.8253 28.5111L39.129 13.9377L37.967 13.7561L31.1977 25.6366Z" fill="#89B140"/>
<path d="M27.8115 33.8005L39.3189 13.6045L51.6574 20.8227L40.15 41.0187L27.8115 33.8005Z" fill="#79A73A"/>
<path d="M33.0408 34.2952C33.3395 33.0191 32.9844 31.6764 32.0961 30.7227L38.8307 18.9032C40.09 19.206 41.4151 18.8462 42.3563 17.946L46.428 20.328C46.1292 21.6041 46.4843 22.9468 47.3727 23.9005L40.7176 35.5805L40.6379 35.7204C39.3788 35.4177 38.0538 35.7773 37.1125 36.6772L33.0408 34.2952Z" fill="#AAC16B"/>
<path d="M42.1072 28.6998C42.8638 27.372 42.4148 25.6741 41.1043 24.9074C39.7939 24.1408 38.1182 24.5957 37.3616 25.9236C36.605 27.2514 37.054 28.9494 38.3645 29.716C39.6749 30.4826 41.3506 30.0277 42.1072 28.6998Z" fill="#79A73A"/>
<path d="M37.1953 32.8786C37.3466 32.613 37.2568 32.2734 36.9947 32.1201C36.7326 31.9668 36.3975 32.0578 36.2462 32.3233C36.0948 32.5889 36.1846 32.9285 36.4467 33.0818C36.7088 33.2352 37.044 33.1442 37.1953 32.8786Z" fill="#79A73A"/>
<path d="M43.2229 22.2997C43.3742 22.0342 43.2844 21.6946 43.0223 21.5413C42.7602 21.3879 42.4251 21.4789 42.2737 21.7445C42.1224 22.0101 42.2122 22.3496 42.4743 22.503C42.7364 22.6563 43.0715 22.5653 43.2229 22.2997Z" fill="#79A73A"/>
</g>
<path d="M13.0432 40.7693L2.00619 20.3055L14.5082 13.3824L25.5453 33.8461L13.0432 40.7693Z" fill="#79A73A"/>
<path d="M16.1803 36.5012C15.2602 35.579 13.9437 35.1878 12.6778 35.4605L6.21852 23.4843C7.12874 22.552 7.51477 21.2181 7.24559 19.9353L11.3713 17.6507C12.2914 18.573 13.6078 18.9641 14.8738 18.6914L21.2569 30.5263L21.3333 30.668C20.4233 31.6002 20.0371 32.9339 20.306 34.2166L16.1803 36.5012Z" fill="#AAC16B"/>
<path d="M16.1801 25.7446C15.4544 24.3991 13.7897 23.9045 12.4619 24.6398C11.1341 25.3751 10.646 27.0619 11.3716 28.4073C12.0973 29.7528 13.762 30.2474 15.0898 29.5121C16.4176 28.7768 16.9058 27.09 16.1801 25.7446Z" fill="#79A73A"/>
<path d="M17.1483 32.168C17.0039 31.8995 16.6709 31.8017 16.4047 31.9495C16.1385 32.0972 16.0398 32.4345 16.1842 32.703C16.3287 32.9714 16.6616 33.0692 16.9279 32.9215C17.1941 32.7737 17.2928 32.4364 17.1483 32.168Z" fill="#79A73A"/>
<path d="M11.3671 21.449C11.2226 21.1805 10.8897 21.0827 10.6235 21.2305C10.3572 21.3782 10.2585 21.7156 10.403 21.984C10.5474 22.2524 10.8804 22.3502 11.1466 22.2025C11.4128 22.0547 11.5116 21.7174 11.3671 21.449Z" fill="#79A73A"/>
<path d="M13.4873 40.1423L17.6407 17.2049L31.654 19.8102L27.5006 42.7476L13.4873 40.1423Z" fill="#79A73A"/>
<path d="M18.5774 38.8306C18.4363 37.527 17.6572 36.3828 16.5046 35.7864L18.9353 22.3625C20.2219 22.2196 21.351 21.4302 21.9396 20.2622L26.564 21.1219C26.7051 22.4256 27.4841 23.5697 28.6368 24.1662L26.2348 37.4316L26.206 37.5906C24.9197 37.7335 23.7905 38.5226 23.2018 39.6903L18.5774 38.8306Z" fill="#AAC16B"/>
<path d="M25.2655 30.4772C25.5386 28.9691 24.5534 27.5222 23.0651 27.2455C21.5768 26.9688 20.1489 27.9671 19.8758 29.4752C19.6027 30.9833 20.5879 32.4301 22.0762 32.7068C23.5645 32.9835 24.9924 31.9853 25.2655 30.4772Z" fill="#79A73A"/>
<path d="M22.0231 36.0847C22.0771 35.7836 21.8792 35.4943 21.5809 35.4383C21.2827 35.3824 20.9971 35.5811 20.9431 35.8822C20.889 36.1832 21.087 36.4726 21.3852 36.5285C21.6835 36.5844 21.969 36.3857 22.0231 36.0847Z" fill="#79A73A"/>
<path d="M24.1986 24.07C24.2527 23.769 24.0547 23.4796 23.7565 23.4237C23.4582 23.3678 23.1727 23.5665 23.1186 23.8675C23.0646 24.1686 23.2625 24.4579 23.5608 24.5138C23.859 24.5698 24.1446 24.3711 24.1986 24.07Z" fill="#79A73A"/>
<path d="M5.90625 36.1143H48.0938V40.5364H5.90625V36.1143Z" fill="#C5B934"/>
<path d="M10.2705 39.0624H8.81575C8.62284 39.0624 8.43783 38.9848 8.30142 38.8466C8.16501 38.7083 8.08838 38.5209 8.08838 38.3254C8.08838 38.1299 8.16501 37.9425 8.30142 37.8042C8.43783 37.666 8.62284 37.5884 8.81575 37.5884H10.2705C10.4634 37.5884 10.6484 37.666 10.7848 37.8042C10.9212 37.9425 10.9979 38.1299 10.9979 38.3254C10.9979 38.5209 10.9212 38.7083 10.7848 38.8466C10.6484 38.9848 10.4634 39.0624 10.2705 39.0624Z" fill="#A39928"/>
<path d="M45.1843 39.0624H43.7296C43.5367 39.0624 43.3516 38.9848 43.2152 38.8466C43.0788 38.7083 43.0022 38.5209 43.0022 38.3254C43.0022 38.1299 43.0788 37.9425 43.2152 37.8042C43.3516 37.666 43.5367 37.5884 43.7296 37.5884H45.1843C45.3772 37.5884 45.5622 37.666 45.6986 37.8042C45.835 37.9425 45.9117 38.1299 45.9117 38.3254C45.9117 38.5209 45.835 38.7083 45.6986 38.8466C45.5622 38.9848 45.3772 39.0624 45.1843 39.0624Z" fill="#A39928"/>
<path d="M5.90625 40.5364H48.0938V44.9585H5.90625V40.5364Z" fill="#D2C745"/>
<path d="M10.2705 43.4846H8.81575C8.62284 43.4846 8.43783 43.4069 8.30142 43.2687C8.16501 43.1305 8.08838 42.943 8.08838 42.7475C8.08838 42.5521 8.16501 42.3646 8.30142 42.2264C8.43783 42.0881 8.62284 42.0105 8.81575 42.0105H10.2705C10.4634 42.0105 10.6484 42.0881 10.7848 42.2264C10.9212 42.3646 10.9979 42.5521 10.9979 42.7475C10.9979 42.943 10.9212 43.1305 10.7848 43.2687C10.6484 43.4069 10.4634 43.4846 10.2705 43.4846Z" fill="#A39928"/>
<path d="M27.7273 39.0624H26.2725C26.0796 39.0624 25.8946 38.9848 25.7582 38.8466C25.6218 38.7083 25.5452 38.5209 25.5452 38.3254C25.5452 38.1299 25.6218 37.9425 25.7582 37.8042C25.8946 37.666 26.0796 37.5884 26.2725 37.5884H27.7273C27.9202 37.5884 28.1052 37.666 28.2416 37.8042C28.378 37.9425 28.4547 38.1299 28.4547 38.3254C28.4547 38.5209 28.378 38.7083 28.2416 38.8466C28.1052 38.9848 27.9202 39.0624 27.7273 39.0624Z" fill="#A39928"/>
<path d="M27.7273 43.4846H26.2725C26.0796 43.4846 25.8946 43.4069 25.7582 43.2687C25.6218 43.1305 25.5452 42.943 25.5452 42.7475C25.5452 42.5521 25.6218 42.3646 25.7582 42.2264C25.8946 42.0881 26.0796 42.0105 26.2725 42.0105H27.7273C27.9202 42.0105 28.1052 42.0881 28.2416 42.2264C28.378 42.3646 28.4547 42.5521 28.4547 42.7475C28.4547 42.943 28.378 43.1305 28.2416 43.2687C28.1052 43.4069 27.9202 43.4846 27.7273 43.4846Z" fill="#A39928"/>
<path d="M45.1843 43.4846H43.7296C43.5367 43.4846 43.3516 43.4069 43.2152 43.2687C43.0788 43.1305 43.0022 42.943 43.0022 42.7475C43.0022 42.5521 43.0788 42.3646 43.2152 42.2264C43.3516 42.0881 43.5367 42.0105 43.7296 42.0105H45.1843C45.3772 42.0105 45.5622 42.0881 45.6986 42.2264C45.835 42.3646 45.9117 42.5521 45.9117 42.7475C45.9117 42.943 45.835 43.1305 45.6986 43.2687C45.5622 43.4069 45.3772 43.4846 45.1843 43.4846Z" fill="#A39928"/>
<path d="M5.90625 31.6921H48.0938V36.1143H5.90625V31.6921Z" fill="#D2C745"/>
<path d="M10.2705 34.6403H8.81575C8.62284 34.6403 8.43783 34.5627 8.30142 34.4244C8.16501 34.2862 8.08838 34.0988 8.08838 33.9033C8.08838 33.7078 8.16501 33.5203 8.30142 33.3821C8.43783 33.2439 8.62284 33.1663 8.81575 33.1663H10.2705C10.4634 33.1663 10.6484 33.2439 10.7848 33.3821C10.9212 33.5203 10.9979 33.7078 10.9979 33.9033C10.9979 34.0988 10.9212 34.2862 10.7848 34.4244C10.6484 34.5627 10.4634 34.6403 10.2705 34.6403Z" fill="#A39928"/>
<path d="M45.1843 34.6403H43.7296C43.5367 34.6403 43.3516 34.5627 43.2152 34.4244C43.0788 34.2862 43.0022 34.0988 43.0022 33.9033C43.0022 33.7078 43.0788 33.5203 43.2152 33.3821C43.3516 33.2439 43.5367 33.1663 43.7296 33.1663H45.1843C45.3772 33.1663 45.5622 33.2439 45.6986 33.3821C45.835 33.5203 45.9117 33.7078 45.9117 33.9033C45.9117 34.0988 45.835 34.2862 45.6986 34.4244C45.5622 34.5627 45.3772 34.6403 45.1843 34.6403Z" fill="#A39928"/>
<path d="M27.7273 34.6403H26.2725C26.0796 34.6403 25.8946 34.5627 25.7582 34.4244C25.6218 34.2862 25.5452 34.0988 25.5452 33.9033C25.5452 33.7078 25.6218 33.5203 25.7582 33.3821C25.8946 33.2439 26.0796 33.1663 26.2725 33.1663H27.7273C27.9202 33.1663 28.1052 33.2439 28.2416 33.3821C28.378 33.5203 28.4547 33.7078 28.4547 33.9033C28.4547 34.0988 28.378 34.2862 28.2416 34.4244C28.1052 34.5627 27.9202 34.6403 27.7273 34.6403Z" fill="#A39928"/>
<path d="M5.90625 44.9587H48.0938V49.3809H5.90625V44.9587Z" fill="#C5B934"/>
<path d="M10.2705 47.9069H8.81575C8.62284 47.9069 8.43783 47.8293 8.30142 47.691C8.16501 47.5528 8.08838 47.3654 8.08838 47.1699C8.08838 46.9744 8.16501 46.787 8.30142 46.6487C8.43783 46.5105 8.62284 46.4329 8.81575 46.4329H10.2705C10.4634 46.4329 10.6484 46.5105 10.7848 46.6487C10.9212 46.787 10.9979 46.9744 10.9979 47.1699C10.9979 47.3654 10.9212 47.5528 10.7848 47.691C10.6484 47.8293 10.4634 47.9069 10.2705 47.9069Z" fill="#A39928"/>
<path d="M45.1843 47.9069H43.7296C43.5367 47.9069 43.3516 47.8293 43.2152 47.691C43.0788 47.5528 43.0022 47.3654 43.0022 47.1699C43.0022 46.9744 43.0788 46.787 43.2152 46.6487C43.3516 46.5105 43.5367 46.4329 43.7296 46.4329H45.1843C45.3772 46.4329 45.5622 46.5105 45.6986 46.6487C45.835 46.787 45.9117 46.9744 45.9117 47.1699C45.9117 47.3654 45.835 47.5528 45.6986 47.691C45.5622 47.8293 45.3772 47.9069 45.1843 47.9069Z" fill="#A39928"/>
<path d="M27.7273 47.9069H26.2725C26.0796 47.9069 25.8946 47.8293 25.7582 47.691C25.6218 47.5528 25.5452 47.3654 25.5452 47.1699C25.5452 46.9744 25.6218 46.787 25.7582 46.6487C25.8946 46.5105 26.0796 46.4329 26.2725 46.4329H27.7273C27.9202 46.4329 28.1052 46.5105 28.2416 46.6487C28.378 46.787 28.4547 46.9744 28.4547 47.1699C28.4547 47.3654 28.378 47.5528 28.2416 47.691C28.1052 47.8293 27.9202 47.9069 27.7273 47.9069Z" fill="#A39928"/>
</g>
<defs>
<clipPath id="clip0_190_4552">
<rect width="54" height="50" fill="white"/>
</clipPath>
<clipPath id="clip1_190_4552">
<rect width="27.0857" height="26.9077" fill="white" transform="matrix(0.495062 -0.868858 0.863146 0.504954 18.6206 28.4236)"/>
</clipPath>
</defs>
</svg>
