<svg height="100%" width="100%" viewBox="0 0 33 33"  fill="none" xmlns="http://www.w3.org/2000/svg">
<path x="-20%" y="-20%" d="M25.1735 5.05127C17.9431 12.9589 15.1826 20.5902 15.1826 30.463C15.3948 30.4495 15.606 30.437 15.8182 30.4235C15.8182 20.5902 18.5321 13.2411 25.6521 5.45386C25.4929 5.32001 25.3327 5.18616 25.1735 5.05127Z" fill="#18214D"/>
<path x="-20%" y="-20%" d="M11.0426 16.9453C9.37632 21.7495 11.8742 26.15 15.4569 26.4498C15.9798 22.3025 14.4402 18.1531 11.0426 16.9453Z" fill="#18214D"/>
<path x="-20%" y="-20%" d="M23.4451 20.8956C22.2769 24.1786 19.0623 26.7664 15.4568 26.4499C16.0447 22.0587 20.0789 19.6847 23.4451 20.8956Z" fill="#18214D"/>
<path x="-20%" y="-20%" d="M14.3818 9.55347C11.8699 14.0069 13.5384 18.7228 17.0096 19.6204C18.2699 15.6577 17.5066 11.3101 14.3818 9.55347Z" fill="#18214D"/>
<path x="-20%" y="-20%" d="M25.876 15.5145C24.1295 18.5536 20.5013 20.5386 17.0095 19.6214C18.377 15.4294 22.7794 13.7589 25.876 15.5145Z" fill="#18214D"/>
<path x="-20%" y="-20%" d="M19.0829 2.74658C15.7665 6.73412 16.5504 11.6545 19.8018 13.1237C21.767 9.4371 21.8341 5.00442 19.0829 2.74658Z" fill="#18214D"/>
<path x="-20%" y="-20%" d="M29.2985 10.5599C27.0031 13.2774 23.0717 14.6159 19.803 13.1238C21.9165 9.22967 26.5743 8.30516 29.2985 10.5599Z" fill="#18214D"/>
<path x="-20%" y="-20%" d="M30.1408 0.844727C29.2237 4.67766 26.2484 7.81955 22.396 8.97648C21.9738 5.0595 25.9625 0.854065 30.1408 0.844727Z" fill="#18214D"/>

<clipPath id="clip0_190_4542">
<rect width="33.1724" height="33.1724" fill="white" transform="translate(0.96582 0.844727)"/>
</clipPath>
</svg>
